<?xml version="1.0" encoding="UTF-8" standalone="no"?>
<!-- Created with Inkscape (http://www.inkscape.org/) -->

<svg
   xmlns:dc="http://purl.org/dc/elements/1.1/"
   xmlns:cc="http://creativecommons.org/ns#"
   xmlns:rdf="http://www.w3.org/1999/02/22-rdf-syntax-ns#"
   xmlns:svg="http://www.w3.org/2000/svg"
   xmlns="http://www.w3.org/2000/svg"
   xmlns:sodipodi="http://sodipodi.sourceforge.net/DTD/sodipodi-0.dtd"
   xmlns:inkscape="http://www.inkscape.org/namespaces/inkscape"
   width="157.11102mm"
   height="78.523293mm"
   viewBox="0 0 157.11102 78.523293"
   version="1.1"
   id="svg7822"
   inkscape:version="0.92.1 r15371"
   sodipodi:docname="EU.svg">
  <defs
     id="defs7816" />
  <sodipodi:namedview
     id="base"
     pagecolor="#ffffff"
     bordercolor="#666666"
     borderopacity="1.0"
     inkscape:pageopacity="0.0"
     inkscape:pageshadow="2"
     inkscape:zoom="1.979899"
     inkscape:cx="261.94101"
     inkscape:cy="43.947085"
     inkscape:document-units="mm"
     inkscape:current-layer="EU_Text"
     showgrid="false"
     fit-margin-top="0"
     fit-margin-left="0"
     fit-margin-right="0"
     fit-margin-bottom="0"
     inkscape:window-width="3200"
     inkscape:window-height="1690"
     inkscape:window-x="0"
     inkscape:window-y="54"
     inkscape:window-maximized="1" />
  <metadata
     id="metadata7819">
    <rdf:RDF>
      <cc:Work
         rdf:about="">
        <dc:format>image/svg+xml</dc:format>
        <dc:type
           rdf:resource="http://purl.org/dc/dcmitype/StillImage" />
        <dc:title />
      </cc:Work>
    </rdf:RDF>
  </metadata>
  <g
     inkscape:label="Layer 1"
     inkscape:groupmode="layer"
     id="layer1"
     transform="translate(-50.712345,-167.02406)">
    <g
       transform="matrix(0.24297685,0,0,0.24297685,188.83029,194.25555)"
       id="layer1-5"
       inkscape:label="Capa 1"
       style="fill:#dfe0e2;fill-opacity:1">
      <path
         style="fill:#dfe0e2;fill-opacity:1;fill-rule:evenodd;stroke:none;stroke-width:0.21398447;stroke-linecap:butt;stroke-linejoin:miter;stroke-miterlimit:4;stroke-dasharray:none;stroke-opacity:1"
         d="m -127.71794,-106.59272 c -11.93351,-2.84752 -13.37848,10.078425 -13.07303,13.586586 -11.7421,9.383061 -21.03943,11.971136 -24.83976,28.704307 -3.501,1.53873 -8.71456,-16.076924 -13.45292,-6.227737 10.51835,5.92634 7.30029,17.941628 -1.34493,20.501733 2.47227,9.041535 -2.03464,13.758802 -9.17717,11.023274 10.27176,16.590576 -14.67742,1.204121 -13.61858,-8.493285 -11.28607,-8.487298 7.43653,-2.348118 13.02745,-2.826479 18.61714,-2.435503 -3.57055,-25.254016 -15.92433,-19.715899 -3.66283,-0.748017 -13.60687,-2.537147 -15.20439,-4.767428 7.27436,-12.49735 -17.31233,3.63351 -11.31581,-2.321693 -8.0357,2.439818 -23.63141,12.881237 -29.73545,24.446847 -6.63905,9.522555 -12.36687,19.847904 -21.3567,28.559554 14.17862,-1.789874 -22.17361,8.76782 -16.76742,8.740481 -0.56725,1.875315 -6.13299,7.7061053 4.17809,8.7921696 -13.90968,-4.7356976 -4.35313,10.8420672 -7.09148,8.7439847 -7.77436,13.2867127 4.93451,22.6129357 15.41157,8.0492287 11.14853,-1.3868007 0.67871,31.384372 13.0661,32.407752 14.45239,-5.186142 12.21136,-24.744719 22.16372,-31.922281 -7.5237,-13.379581 -6.75316,-26.357806 7.13431,-32.629768 -0.33028,-9.564766 13.51263,-27.482393 14.81294,-9.551282 -11.70629,9.534761 -20.11857,39.3798257 2.66068,37.6436103 4.8816,-8.5589628 29.18465,-4.3354646 13.91165,2.8849996 -15.42063,-3.6698925 -20.01494,9.2373101 -13.73218,18.6693321 -5.88038,1.97035 -17.75477,-3.888527 -14.59695,9.85317 4.73694,13.265519 -9.19734,15.639993 -22.8498,13.610066 -7.59053,8.619498 -25.14698,2.318072 -30.22712,-7.426321 6.70221,-5.439209 10.44222,-28.638713 -1.62726,-15.213525 -8.82723,10.080457 7.3604,31.73087 -12.68826,26.450726 -6.42216,-0.856883 -8.44129,9.18925 -11.61923,2.52241 -4.35992,14.671084 -27.97936,18.50207 -36.9697,19.992731 -3.18488,7.782183 -24.33416,-6.280143 -14.17725,8.548187 17.82656,8.346848 5.66865,46.418169 -14.15113,29.528049 -12.32044,-9.47532 -30.04642,-11.05003 -28.10412,8.80077 -8.70022,12.19627 -15.37497,29.50832 2.43598,36.28084 8.9677,11.76428 34.28123,13.21225 42.08028,-3.03139 2.75272,-14.58289 24.67055,-17.14058 29.98972,-26.70039 14.38431,10.59083 33.7817,-12.43458 40.02547,10.60401 5.76844,16.19606 33.2542,24.1171 29.47791,39.56715 6.10693,-4.53066 1.52978,-22.55999 13.44802,-13.62042 -12.77155,-12.05452 -30.6735,-24.39638 -34.15169,-42.15907 15.65078,-9.04327 20.02766,21.42024 36.87843,22.98457 5.26367,13.30929 6.41297,34.62202 25.64076,33.93155 -20.09465,-5.00492 -1.13088,21.4502 2.6787,6.57404 -1.62125,-6.54931 10.65178,-6.69977 -1.8479,-10.91237 0.17227,-8.42975 -3.6083,-15.41504 5.30193,-13.53263 7.35516,-14.37816 16.50125,5.61886 23.46534,-5.13021 11.62909,-6.15636 -9.19027,-13.89289 1.76265,-23.30519 2.90266,-12.8269 10.9541,-34.00171 26.35963,-21.69435 -12.51394,17.44175 30.61604,2.00955 8.76728,0.86529 -10.74069,-6.75976 27.10171,-26.972579 14.85459,-8.22765 -11.47794,17.55173 19.90844,15.23213 30.07277,23.0177 15.28843,-3.57181 35.181759,11.69212 46.976433,-0.61665 -6.080578,-11.26132 -36.797223,-20.99268 -23.722254,-39.072283 11.949246,-12.546042 13.357842,-25.753046 0.176291,-37.860593 -7.24953,-18.954019 22.166808,-21.663267 34.7106,-25.576786 C -40.319167,14.29711 -80.125483,18.11306 -76.709982,0.20283098 -80.295173,14.557741 -102.64977,2.370606 -88.458071,-6.0609047 -101.17314,-19.06939 -99.035098,-40.101835 -111.3857,-55.831682 c -18.88569,-12.504126 4.7132,-34.404444 -10.69656,-48.064268 l -2.53186,-1.48417 -3.10378,-1.2126 z m -22.15852,3.0881 c 2.28564,8.840102 10.96102,-2.69387 0,0 z m -224.13108,18.582781 c -3.47499,4.308778 -7.97174,3.993782 -4.99553,9.348689 -12.59963,4.064181 5.10507,27.196486 18.61624,18.776428 17.5909,-11.378621 -6.70725,-20.418128 -13.75006,-19.679212 3.31732,-2.201647 1.02075,-5.790017 0.12935,-8.445905 z m 206.09008,0 c -5.82375,11.218468 11.66151,1.428118 0,0 z m 17.49923,3.088099 c -9.52604,8.922189 11.91332,28.617954 12.84287,12.325673 -1.78868,21.683896 -20.8456,-4.095986 -12.84287,-12.325673 z m 20.64153,0 c 0.73405,1.453029 0.5962,1.180148 0,0 z m -124.71596,12.894175 c -5.90751,3.640374 1.20395,5.139075 0,0 z m 32.45217,0 c 0.23649,7.262042 -7.69441,3.908386 0,0 z m -39.11592,4.117456 c -5.01575,1.589332 0.40278,5.863733 0,0 z m 1.02935,0.487603 c -5.3103,4.674639 1.56736,5.59045 0,0 z m 52.01012,1.571134 c 4.04835,8.731713 -2.6499,8.559843 0,0 z m -20.58735,4.605074 c 6.07112,-2.611668 6.69712,4.877036 0,0 z m 17.49924,12.894156 c 4.20058,3.737636 -4.38211,2.035207 0,0 z m 38.68254,10.835448 c 6.26584,7.628007 23.20515,10.142558 5.42256,5.020857 -2.23101,-1.095773 -4.31637,-2.733717 -5.42256,-5.020857 z m -51.03495,4.117481 c 5.51703,0.191217 3.28704,7.727684 0,0 z m 27.30533,1.516944 c 7.55002,2.109343 -0.6347,9.27012 0,0 z m 86.57517,0 c 8.86006,7.770266 8.02243,18.765385 1.51706,3.466631 z m -88.63389,3.629892 c 5.79067,1.804208 -3.03874,3.945531 0,0 z m -24.21721,2.600485 c 5.97975,2.808056 5.31091,12.501783 12.38041,9.854296 -0.78035,5.0375177 -10.54437,12.27431458 -4.3156,3.2031925 -4.93494,-2.8101955 -4.69957,-9.0620215 -8.06481,-13.0574885 z m 28.87641,1.51697 c 12.28693,0.649557 8.03795,23.7959414 0.81545,7.238892 -8.30637,-6.158135 7.14614,2.071103 -1.3572,-5.180184 4.51225,8.050102 6.82928,0.257101 0.54175,-2.058708 z m -31.96453,2.600497 c 6.77168,1.921333 -1.35523,12.0066972 0.81082,14.7749726 -3.46437,-3.4609988 0.18868,-10.0581566 -0.81082,-14.7749726 z m 13.38176,6.663807 c -5.7485,0.812768 2.52016,4.5877272 0,0 z m -21.12909,1.029367 c 9.1231,-4.188354 -4.00957,11.01222295 3.51966,4.2367156 -1.59269,10.4020916 -3.82207,-0.9013251 -3.51966,-4.2367156 z m 27.84707,1.0293408 c 15.02968,2.0789105 0.57827,19.7090479 -2.19533,5.1077303 -1.99851,-3.0318926 1.11602,-3.4261932 2.19533,-5.1077303 z m 103.58683,0.5417905 c 0.37546,7.2175276 -6.3605,6.9447391 0,0 z m -74.76455,5.1468348 c 3.08728,2.7635531 -5.18929,1.9917668 0,0 z m -177.75541,3.08810233 c -6.5582,1.85886494 -3.41006,8.13093067 0,0 z m 5.14682,1.02936696 c -6.73739,7.19942201 -11.73113,21.40958561 -7.7207,22.30662761 -9.59469,10.739057 10.07981,5.850276 2.6081,18.087588 -5.09694,3.468724 -16.47969,8.196006 -10.73992,15.624767 18.12122,-0.383655 -24.68487,8.744723 -2.15629,8.659 11.77861,-0.405506 31.78494,7.444153 29.84495,-10.60791 -8.3664,-8.322706 -4.95588,-23.370857 -10.66543,-33.163921 14.39918,-7.086966 -5.46672,-12.841784 4.59331,-19.0926482 l -2.1154,-0.7863202 z m 177.26782,3.62989141 c 0.30479,4.4067534 7.29132,12.3559102 -2.82138,6.6705032 3.85523,-1.6223998 -2.21587,-6.5820024 2.82138,-6.6705032 z m -186.53213,1.5169434 c -1.47297,6.5851888 3.55161,5.1242498 0,0 z m 210.74935,3.6298786 c 4.45227,11.7329582 -5.73816,8.0997702 0,0 z m 36.56962,1.0293669 c -2.41026,8.1310143 -10.41784,16.6989473 -0.44357,21.2646043 -8.57263,-0.877682 -6.16316,-25.1322485 -21.4521,-14.929356 -22.65251,6.710084 9.85453,-4.28811 17.82105,-0.790142 2.30935,-0.606089 5.24694,-2.807988 4.07462,-5.5451063 z m -164.37365,1.5169843 c 11.09934,2.81609 -10.6108,12.10389 0,0 z m -83.48709,2.600485 c -6.17487,1.159748 2.26742,4.13651 0,0 z m 143.78631,0.487589 c 4.22817,9.64082 -7.12632,0.718764 0,0 z m -21.61669,1.029367 c -4.70479,3.987962 6.13442,0.290666 0,0 z m 37.0572,0.541765 c 11.18088,-4.657725 -5.00858,7.956165 0,0 z m 130.892141,3.088127 c 6.57459,0.940589 -0.997239,8.05579 0,0 z m -170.549851,0.54175 c 0.31842,11.239101 10.31936,-6.495091 0,0 z m -131.92151,1.029367 c -5.55278,6.048342 -14.82531,6.438635 -12.57116,14.821337 -18.85345,10.689871 19.06325,17.119355 16.30606,-1.055675 9.24485,-5.666437 -0.28295,-12.040197 -0.56821,-12.585758 -0.43614,1.014716 -4.55833,0.880993 -3.16669,-1.179904 z m 120.0567,3.575665 c -6.59195,2.868936 -2.30188,10.111463 0,0 z m -43.77517,3.088141 c 7.89349,2.059949 -6.6594,5.708235 0,0 z m 13.38177,9.806055 c -14.12199,3.393441 1.95254,19.436212 0,0 z m -10.83545,3.088127 c -5.02916,8.674984 10.11794,0.736167 0,0 z m 175.20909,7.205543 c -4.07333,5.94284 1.05999,30.65751 -1.23905,24.736572 0.58202,-8.183134 -3.91365,-17.275441 1.23905,-24.736572 z m -159.22681,2.600512 c -6.02942,0.388017 2.24725,5.192646 0,0 z m 126.77464,7.69316 c 1.00386,2.341282 1.47025,3.429035 0,0 z m 43.2876,1.571144 c -2.3413,1.003846 -3.429,1.470208 0,0 z m -20.09974,12.352418 c 11.39411,4.611614 -8.38077,24.370467 1.57115,8.234923 1.39521,-2.672082 0.92235,-6.35302 -1.57115,-8.234923 z m -61.32859,11.864789 c -6.76782,1.362097 -4.3421,0.346059 0,0 z m -163.83189,1.02938 -1.32419,3.332171 z m 156.08454,0 c -4.08244,1.086316 -6.44626,0.609121 0,0 z m 7.74735,0.48759 c 17.10352,-1.452669 27.97469,20.050757 15.39905,19.363017 16.64427,-15.38339 -5.7244,-13.278929 -15.39905,-19.363017 z m -16.4699,0.541764 c -6.11503,1.494673 -4.13433,0.274029 0,0 z m -148.93313,4.117482 -1.15247,3.888017 z m 262.813638,39.657701 c 11.096294,-2.34309 -3.112404,4.68219 0,0 z m -219.038448,10.34785 c -13.68754,6.02272 3.72961,17.70684 0,0 z m -2.54633,13.38177 c -17.33407,0.54287 1.22675,30.13017 2.39786,7.05155 -0.31935,-2.47932 -1.14851,-4.88787 -2.39786,-7.05155 z m -37.59896,2.60051 c -13.88437,-1.00596 2.55266,9.96081 0,0 z m 123.14478,19.55798 c -1.59232,9.60278 16.36817,4.83806 0,0 z m -17.01165,4.65922 c -4.39435,2.7223 4.52878,2.68651 0,0 z m -31.42278,0.48761 -20.09973,0.54177 c 4.94803,9.97325 19.50422,15.04035 20.09973,-0.54177 z m 51.52251,20.64149 c 5.08455,10.67299 25.72908,-0.85592 5.49252,1.84213 -1.82373,-0.63227 -3.40783,-2.14847 -5.49252,-1.84213 z m -59.6491,0.0541 c -0.35943,6.20966 7.19201,-1.10115 0,0 z"
         id="path4103"
         inkscape:connector-curvature="0"
         sodipodi:nodetypes="ccccccccccccccccccccccccccccccccccccccccccccccccccccccccccccccccccccccccccccccccccccccccccccccccccccccccccccccccccccccccccccccccccccccccccccccccccccccccccccccccccccccccccccccccccccccccccccccccccccccccccccccccccccccccccccccccc" />
    </g>
    <g
       aria-label="Europe"
       style="font-style:normal;font-variant:normal;font-weight:bold;font-stretch:normal;font-size:23.39473724px;line-height:1.25;font-family:'IBM Plex Sans';-inkscape-font-specification:'IBM Plex Sans Bold';letter-spacing:0px;word-spacing:0px;fill:#3c3c3c;fill-opacity:1;stroke:none;stroke-width:0.58486843"
       id="EU_Text">
      <path
         d="m 94.036212,213.68748 v -16.32952 h 11.112498 v 3.15829 h -7.556498 v 3.32205 h 6.480338 v 3.1349 h -6.480338 v 3.556 h 7.556498 v 3.15828 z"
         style="font-style:normal;font-variant:normal;font-weight:bold;font-stretch:normal;font-family:'IBM Plex Sans';-inkscape-font-specification:'IBM Plex Sans Bold';fill:#3c3c3c;fill-opacity:1;stroke-width:0.58486843"
         id="path4486" />
      <path
         d="m 115.3119,211.62875 h -0.11698 q -0.16376,0.46789 -0.4445,0.889 -0.25734,0.4211 -0.67844,0.74863 -0.42111,0.32753 -1.00598,0.51468 -0.56147,0.18716 -1.3101,0.18716 -1.89498,0 -2.87755,-1.23992 -0.95919,-1.26332 -0.95919,-3.60279 v -7.72026 h 3.46242 v 7.41613 q 0,1.12295 0.39771,1.73121 0.39771,0.60826 1.3569,0.60826 0.39771,0 0.79542,-0.11697 0.39771,-0.11697 0.70184,-0.32753 0.30413,-0.23394 0.49129,-0.56147 0.18716,-0.32753 0.18716,-0.77203 v -7.9776 h 3.46242 v 12.28223 h -3.46242 z"
         style="font-style:normal;font-variant:normal;font-weight:bold;font-stretch:normal;font-family:'IBM Plex Sans';-inkscape-font-specification:'IBM Plex Sans Bold';fill:#3c3c3c;fill-opacity:1;stroke-width:0.58486843"
         id="path4488" />
      <path
         d="m 121.99585,213.68748 v -12.28223 h 3.46242 v 2.667 h 0.11697 q 0.0936,-0.51469 0.32753,-0.98258 0.23395,-0.49129 0.60826,-0.86561 0.39771,-0.37431 0.93579,-0.58486 0.53808,-0.23395 1.26332,-0.23395 h 0.60826 v 3.22847 h -0.8656 q -1.52066,0 -2.26929,0.39771 -0.72524,0.39771 -0.72524,1.47387 v 7.18218 z"
         style="font-style:normal;font-variant:normal;font-weight:bold;font-stretch:normal;font-family:'IBM Plex Sans';-inkscape-font-specification:'IBM Plex Sans Bold';fill:#3c3c3c;fill-opacity:1;stroke-width:0.58486843"
         id="path4490" />
      <path
         d="m 136.30027,213.96822 q -1.3569,0 -2.43306,-0.4445 -1.05276,-0.4445 -1.80139,-1.28671 -0.72524,-0.84221 -1.12295,-2.03534 -0.39771,-1.19313 -0.39771,-2.667 0,-1.47387 0.39771,-2.667 0.39771,-1.19313 1.12295,-2.01195 0.74863,-0.84221 1.80139,-1.28671 1.07616,-0.4445 2.43306,-0.4445 1.35689,0 2.40965,0.4445 1.07616,0.4445 1.8014,1.28671 0.74863,0.81882 1.14634,2.01195 0.39771,1.19313 0.39771,2.667 0,1.47387 -0.39771,2.667 -0.39771,1.19313 -1.14634,2.03534 -0.72524,0.84221 -1.8014,1.28671 -1.05276,0.4445 -2.40965,0.4445 z m 0,-2.73718 q 1.02936,0 1.59084,-0.63166 0.56147,-0.63166 0.56147,-1.8014 v -2.50323 q 0,-1.16974 -0.56147,-1.8014 -0.56148,-0.63165 -1.59084,-0.63165 -1.02937,0 -1.59085,0.63165 -0.56147,0.63166 -0.56147,1.8014 v 2.50323 q 0,1.16974 0.56147,1.8014 0.56148,0.63166 1.59085,0.63166 z"
         style="font-style:normal;font-variant:normal;font-weight:bold;font-stretch:normal;font-family:'IBM Plex Sans';-inkscape-font-specification:'IBM Plex Sans Bold';fill:#3c3c3c;fill-opacity:1;stroke-width:0.58486843"
         id="path4492" />
      <path
         d="m 144.52242,201.40525 h 3.46242 v 2.05873 h 0.11698 q 0.25734,-1.02936 1.16973,-1.68442 0.93579,-0.65505 2.12892,-0.65505 2.33948,0 3.53261,1.63763 1.19313,1.63763 1.19313,4.77253 0,3.13489 -1.19313,4.79592 -1.19313,1.63763 -3.53261,1.63763 -0.60826,0 -1.14634,-0.18716 -0.53808,-0.16376 -0.98258,-0.46789 -0.4211,-0.32753 -0.72523,-0.74863 -0.30414,-0.4445 -0.4445,-0.93579 h -0.11698 v 6.73768 h -3.46242 z m 5.73171,9.7556 q 0.98258,0 1.61424,-0.67844 0.65505,-0.70185 0.65505,-1.87158 v -2.12892 q 0,-1.16974 -0.65505,-1.84819 -0.63166,-0.70184 -1.61424,-0.70184 -0.98258,0 -1.63763,0.49129 -0.63166,0.46789 -0.63166,1.3101 v 3.62619 q 0,0.84221 0.63166,1.3335 0.65505,0.46789 1.63763,0.46789 z"
         style="font-style:normal;font-variant:normal;font-weight:bold;font-stretch:normal;font-family:'IBM Plex Sans';-inkscape-font-specification:'IBM Plex Sans Bold';fill:#3c3c3c;fill-opacity:1;stroke-width:0.58486843"
         id="path4494" />
      <path
         d="m 163.85634,213.96822 q -1.40368,0 -2.50323,-0.4445 -1.09956,-0.46789 -1.87158,-1.28671 -0.74863,-0.84221 -1.14634,-2.03534 -0.37432,-1.19313 -0.37432,-2.667 0,-1.45047 0.37432,-2.62021 0.37431,-1.19313 1.09955,-2.03534 0.74863,-0.84221 1.82479,-1.28671 1.07616,-0.4679 2.45645,-0.4679 1.52065,0 2.59681,0.51469 1.09955,0.51468 1.778,1.38028 0.70184,0.86561 1.00598,2.01195 0.32752,1.12295 0.32752,2.36287 v 1.02937 h -7.88402 v 0.18716 q 0,1.21652 0.65505,1.94176 0.65505,0.70184 2.05873,0.70184 1.07616,0 1.75461,-0.4211 0.67845,-0.4445 1.26332,-1.05277 l 1.73121,2.15232 q -0.81882,0.95918 -2.15232,1.49726 -1.3101,0.53808 -2.99453,0.53808 z m -0.0702,-10.29368 q -1.05276,0 -1.66103,0.70184 -0.58486,0.67845 -0.58486,1.82479 v 0.18716 h 4.30463 v -0.21056 q 0,-1.12294 -0.51469,-1.80139 -0.49129,-0.70184 -1.54405,-0.70184 z"
         style="font-style:normal;font-variant:normal;font-weight:bold;font-stretch:normal;font-family:'IBM Plex Sans';-inkscape-font-specification:'IBM Plex Sans Bold';fill:#3c3c3c;fill-opacity:1;stroke-width:0.58486843"
         id="path4496" />
    </g>
  </g>
</svg>
