<?xml version="1.0" encoding="UTF-8" standalone="no"?>
<!-- Created with Inkscape (http://www.inkscape.org/) -->

<svg
   xmlns:dc="http://purl.org/dc/elements/1.1/"
   xmlns:cc="http://creativecommons.org/ns#"
   xmlns:rdf="http://www.w3.org/1999/02/22-rdf-syntax-ns#"
   xmlns:svg="http://www.w3.org/2000/svg"
   xmlns="http://www.w3.org/2000/svg"
   xmlns:sodipodi="http://sodipodi.sourceforge.net/DTD/sodipodi-0.dtd"
   xmlns:inkscape="http://www.inkscape.org/namespaces/inkscape"
   width="157.11102mm"
   height="78.523293mm"
   viewBox="0 0 157.11102 78.523293"
   version="1.1"
   id="svg8439"
   inkscape:version="0.92.1 r15371"
   sodipodi:docname="JP.svg">
  <defs
     id="defs8433" />
  <sodipodi:namedview
     id="base"
     pagecolor="#ffffff"
     bordercolor="#666666"
     borderopacity="1.0"
     inkscape:pageopacity="0.0"
     inkscape:pageshadow="2"
     inkscape:zoom="0.98994949"
     inkscape:cx="-751.02503"
     inkscape:cy="128.59789"
     inkscape:document-units="mm"
     inkscape:current-layer="JP_Text"
     showgrid="false"
     fit-margin-top="0"
     fit-margin-left="0"
     fit-margin-right="0"
     fit-margin-bottom="0"
     inkscape:window-width="3200"
     inkscape:window-height="1690"
     inkscape:window-x="0"
     inkscape:window-y="54"
     inkscape:window-maximized="1"
     showguides="false" />
  <metadata
     id="metadata8436">
    <rdf:RDF>
      <cc:Work
         rdf:about="">
        <dc:format>image/svg+xml</dc:format>
        <dc:type
           rdf:resource="http://purl.org/dc/dcmitype/StillImage" />
        <dc:title />
      </cc:Work>
    </rdf:RDF>
  </metadata>
  <g
     inkscape:label="Layer 1"
     inkscape:groupmode="layer"
     id="layer1"
     transform="translate(216.89479,28.011646)">
    <g
       id="g7603"
       transform="matrix(0.02645475,0,0,0.0260008,-99.403617,-68.663155)">
      <g
         transform="translate(-14349.138,4212.643)"
         inkscape:label="Coastlines"
         id="layer2">
        <g
           id="g7611"
           transform="matrix(11.842933,0,0,11.842933,1391.8693,-16138.727)"
           style="fill:#dfe0e2;fill-opacity:1;stroke:none">
          <path
             style="fill:#dfe0e2;fill-opacity:1;fill-rule:evenodd;stroke:none;stroke-width:0.44999999;stroke-linecap:butt;stroke-linejoin:miter;stroke-miterlimit:4;stroke-dasharray:none;stroke-opacity:1"
             d="m 876.48422,1342.402 c 1.09732,7.2401 12.97963,4.0364 11.6295,11.2771 7.24402,7.9922 -5.87694,18.3668 -2.73582,28.1399 -4.03661,2.1267 -4.26168,5.7753 -9.35324,7.3029 -0.56893,-1.7654 1.72102,-13.2468 -3.3781,-7.0946 7.48934,7.2235 -8.96615,7.5937 -3.6014,-0.8743 -4.37297,-8.601 9.39995,-16.9458 -0.34246,-24.3018 -8.02472,1.5126 6.66657,6.575 -1.60442,8.3232 -0.59636,-5.526 -8.80102,4.0295 -7.7394,-5.2551 3.56297,0.6903 5.83739,1.2779 0.34973,-2.2759 -3.76897,-6.5666 11.43453,-9.4153 15.20061,-14.3914 0.48856,-0.3925 0.92141,-0.7782 1.575,-0.85 z"
             id="path3240"
             inkscape:connector-curvature="0" />
          <path
             style="fill:#dfe0e2;fill-opacity:1;fill-rule:evenodd;stroke:none;stroke-width:0.44999999;stroke-linecap:butt;stroke-linejoin:miter;stroke-miterlimit:4;stroke-dasharray:none;stroke-opacity:1"
             d="m 993.90921,1143.052 c 10.36139,3.115 16.60409,18.4878 29.67439,19.3082 5.562,4.9275 15.7117,-11.8064 11.7006,-1.8082 -3.4988,6.4847 6.2667,12.4438 7.5601,11.6112 -6.5617,8.7957 -20.2833,4.4589 -23.6466,16.2609 0.262,15.9367 -13.2692,2.3644 -21.07657,0.5783 -5.38506,0.53 -7.45008,7.5932 -13.00252,1.9332 -12.56302,5.5314 17.14779,10.7122 3.31688,13.0148 -5.29686,-2.0566 -4.6769,11.2277 -8.45526,3.7758 3.43664,-7.6892 -10.88233,-14.0384 0.35107,-20.2724 4.00545,-2.8787 -0.52081,-12.4443 7.87665,-7.2962 8.78699,-3.5502 6.57744,-19.3029 5.84601,-27.9156 -1.8953,-2.8101 -2.51743,-6.433 -0.14475,-9.19 z"
             id="path2920"
             inkscape:connector-curvature="0" />
          <path
             style="fill:#dfe0e2;fill-opacity:1;fill-rule:evenodd;stroke:none;stroke-width:0.44999999;stroke-linecap:butt;stroke-linejoin:miter;stroke-miterlimit:4;stroke-dasharray:none;stroke-opacity:1"
             d="m 990.83421,1210.552 c 10.67189,-3.99 6.209,14.6783 14.72019,18.1314 9.0615,9.3984 0.3679,21.8309 -0.6862,30.6847 -11.63673,4.0097 6.2408,21.0729 -4.7078,28.4909 -1.65773,6.3888 7.2914,13.2349 0.7945,17.5501 2.2969,8.1317 -13.08225,14.3056 -7.1859,2.6381 3.04191,-8.2453 -5.67295,-1.4241 -3.13808,3.5019 -9.1059,-7.1745 -4.63817,17.2498 -10.2102,7.8488 -2.53492,-9.9548 -7.08241,9.0448 -13.01561,4.8155 -2.22228,0.015 -12.99362,4.4487 -7.71457,-0.764 -3.79968,3.1971 -9.5782,-7.775 -9.17718,1.3612 4.72899,2.9528 7.52912,8.0201 -0.18229,8.0727 -4.65236,5.2695 -7.75643,19.4801 -16.52071,9.2113 -4.09956,-7.1361 6.14853,-17.9742 -7.30729,-14.6806 -10.27343,0.9943 -20.33051,9.1386 -29.32888,9.1779 -5.71621,-3.7728 -3.86944,13.7945 -9.63997,4.9355 -8.58118,4.8809 -17.0181,-4.318 -5.66703,-7.5453 9.5003,-3.8655 13.94989,-21.041 25.14203,-17.3047 7.97305,-1.4361 17.5683,-5.3553 24.36487,-5.714 2.85334,8.2837 13.12624,-2.8647 10.45258,-8.0704 9.07119,-5.4947 1.58225,-22.48 12.97075,-23.2011 0.72541,2.8936 -7.01464,10.1264 1.4883,10.6606 11.03172,-4.7625 17.95469,-16.6568 23.75043,-26.8802 1.6879,-7.3476 8.47059,-24.3613 2.065,-26.1649 -5.20059,2.7613 5.22698,-7.986 -1.39248,-10.9197 0.82696,-4.2977 3.18528,-7.355 5.11578,-11.9334 3.58262,1.9283 6.19844,8.7582 10.33184,1.2307 -0.29652,-5.2749 -9.50425,3.5468 -5.32208,-5.133 z"
             id="path2616-9"
             inkscape:connector-curvature="0" />
          <path
             style="fill:#dfe0e2;fill-opacity:1;fill-rule:evenodd;stroke:none;stroke-width:0.44999999;stroke-linecap:butt;stroke-linejoin:miter;stroke-miterlimit:4;stroke-dasharray:none;stroke-opacity:1"
             d="m 926.38422,1333.352 c 4.41399,-11.5021 4.836,5.8193 0,0 z"
             id="path3585"
             inkscape:connector-curvature="0" />
          <path
             style="fill:#dfe0e2;fill-opacity:1;fill-rule:evenodd;stroke:none;stroke-width:0.44999999;stroke-linecap:butt;stroke-linejoin:miter;stroke-miterlimit:4;stroke-dasharray:none;stroke-opacity:1"
             d="m 917.63422,1333.852 c 12.58051,-0.4649 8.35331,11.9199 1.34517,16.2575 -11.42472,-11.7002 -11.64383,16.9009 -23.17341,8.2233 6.80583,-4.1432 -4.44338,-10.3982 -2.74513,-7.9736 6.85872,-1.8169 7.43022,-14.9637 15.92303,-9.6251 3.74549,-1.3422 3.59439,-8.0102 8.65034,-6.8821 z"
             id="path2468"
             inkscape:connector-curvature="0" />
          <path
             style="fill:#dfe0e2;fill-opacity:1;fill-rule:evenodd;stroke:none;stroke-width:0.44999999;stroke-linecap:butt;stroke-linejoin:miter;stroke-miterlimit:4;stroke-dasharray:none;stroke-opacity:1"
             d="m 967.28421,1265.452 c 5.78642,-1.4765 -1.07939,13.5722 -1.10668,3.8014 0.14326,-1.2857 0.15815,-2.7861 1.10668,-3.8014 z"
             id="path3302"
             inkscape:connector-curvature="0" />
        </g>
      </g>
    </g>
    <g
       aria-label="Japan"
       style="font-style:normal;font-variant:normal;font-weight:bold;font-stretch:normal;font-size:23.39473724px;line-height:1.25;font-family:'IBM Plex Sans';-inkscape-font-specification:'IBM Plex Sans Bold';letter-spacing:0px;word-spacing:0px;fill:#3c3c3c;fill-opacity:1;stroke:none;stroke-width:0.58486843"
       id="JP_Text">
      <path
         d="M -156.70731,2.2259124 V 13.829702 q 0,1.122947 -0.37431,2.058737 -0.35092,0.912395 -1.05277,1.567447 -0.70184,0.631658 -1.70781,1.005974 -0.98258,0.350921 -2.2459,0.350921 -1.21652,0 -2.15231,-0.327526 -0.9124,-0.327527 -1.59084,-0.93579 -0.65506,-0.608263 -1.07616,-1.450473 -0.42111,-0.842211 -0.58487,-1.871579 l 3.32205,-0.655053 q 0.39771,2.128921 2.03534,2.128921 0.77203,0 1.31011,-0.491289 0.56147,-0.49129 0.56147,-1.544053 V 5.0800703 h -4.95968 V 2.2259124 Z"
         style="font-style:normal;font-variant:normal;font-weight:bold;font-stretch:normal;font-family:'IBM Plex Sans';-inkscape-font-specification:'IBM Plex Sans Bold';fill:#3c3c3c;fill-opacity:1;stroke-width:0.58486843"
         id="path4493" />
      <path
         d="m -144.3176,18.555439 q -0.93579,0 -1.56745,-0.584868 -0.60826,-0.584869 -0.77202,-1.567448 h -0.14037 q -0.28074,1.193132 -1.23992,1.82479 -0.95919,0.608263 -2.36287,0.608263 -1.84819,0 -2.83076,-0.982579 -0.98258,-0.982579 -0.98258,-2.596816 0,-1.941763 1.40368,-2.877553 1.42708,-0.959184 3.86013,-0.959184 h 1.94177 v -0.772026 q 0,-0.8890002 -0.4679,-1.4036844 -0.46789,-0.538079 -1.56745,-0.538079 -1.02936,0 -1.63763,0.4445 -0.60826,0.4445 -1.00597,1.0059734 l -2.05874,-1.8247892 q 0.74863,-1.0995526 1.87158,-1.7078158 1.14634,-0.6316579 3.08811,-0.6316579 2.62021,0 3.93031,1.1463421 1.31011,1.1463421 1.31011,3.3454478 v 5.380789 h 1.14634 v 2.690395 z m -4.79592,-2.128921 q 0.8656,0 1.47387,-0.374316 0.63166,-0.374316 0.63166,-1.216526 v -1.450474 h -1.68443 q -2.03534,0 -2.03534,1.38029 v 0.350921 q 0,0.678447 0.42111,1.005973 0.4211,0.304132 1.19313,0.304132 z"
         style="font-style:normal;font-variant:normal;font-weight:bold;font-stretch:normal;font-family:'IBM Plex Sans';-inkscape-font-specification:'IBM Plex Sans Bold';fill:#3c3c3c;fill-opacity:1;stroke-width:0.58486843"
         id="path4495" />
      <path
         d="m -140.09814,6.2732019 h 3.46242 v 2.0587369 h 0.11698 q 0.25734,-1.0293684 1.16973,-1.6844211 0.93579,-0.6550526 2.12892,-0.6550526 2.33948,0 3.53261,1.6376316 1.19313,1.6376316 1.19313,4.7725263 0,3.134895 -1.19313,4.795921 -1.19313,1.637632 -3.53261,1.637632 -0.60826,0 -1.14634,-0.187158 -0.53808,-0.163763 -0.98258,-0.467895 -0.4211,-0.327526 -0.72523,-0.748631 -0.30414,-0.4445 -0.4445,-0.93579 h -0.11698 v 6.737684 h -3.46242 z m 5.73171,9.7556051 q 0.98258,0 1.61424,-0.678447 0.65505,-0.701842 0.65505,-1.871579 V 11.34986 q 0,-1.169737 -0.65505,-1.8481843 -0.63166,-0.7018421 -1.61424,-0.7018421 -0.98258,0 -1.63763,0.4912894 -0.63166,0.4678948 -0.63166,1.310105 v 3.626185 q 0,0.84221 0.63166,1.3335 0.65505,0.467894 1.63763,0.467894 z"
         style="font-style:normal;font-variant:normal;font-weight:bold;font-stretch:normal;font-family:'IBM Plex Sans';-inkscape-font-specification:'IBM Plex Sans Bold';fill:#3c3c3c;fill-opacity:1;stroke-width:0.58486843"
         id="path4497" />
      <path
         d="m -116.8105,18.555439 q -0.93579,0 -1.56745,-0.584868 -0.60827,-0.584869 -0.77203,-1.567448 h -0.14037 q -0.28073,1.193132 -1.23992,1.82479 -0.95918,0.608263 -2.36287,0.608263 -1.84818,0 -2.83076,-0.982579 -0.98258,-0.982579 -0.98258,-2.596816 0,-1.941763 1.40369,-2.877553 1.42707,-0.959184 3.86013,-0.959184 h 1.94176 v -0.772026 q 0,-0.8890002 -0.46789,-1.4036844 -0.4679,-0.538079 -1.56745,-0.538079 -1.02937,0 -1.63763,0.4445 -0.60827,0.4445 -1.00598,1.0059734 l -2.05873,-1.8247892 q 0.74863,-1.0995526 1.87158,-1.7078158 1.14634,-0.6316579 3.0881,-0.6316579 2.62021,0 3.93032,1.1463421 1.3101,1.1463421 1.3101,3.3454478 v 5.380789 h 1.14634 v 2.690395 z m -4.79593,-2.128921 q 0.86561,0 1.47387,-0.374316 0.63166,-0.374316 0.63166,-1.216526 v -1.450474 h -1.68442 q -2.03534,0 -2.03534,1.38029 v 0.350921 q 0,0.678447 0.4211,1.005973 0.42111,0.304132 1.19313,0.304132 z"
         style="font-style:normal;font-variant:normal;font-weight:bold;font-stretch:normal;font-family:'IBM Plex Sans';-inkscape-font-specification:'IBM Plex Sans Bold';fill:#3c3c3c;fill-opacity:1;stroke-width:0.58486843"
         id="path4499" />
      <path
         d="M -112.59105,18.555439 V 6.2732019 h 3.46242 v 2.0821317 h 0.14037 q 0.32753,-0.9591843 1.14634,-1.6610264 0.81882,-0.7018421 2.26929,-0.7018421 1.89498,0 2.85416,1.2633158 0.98258,1.2633158 0.98258,3.6027891 v 7.696869 h -3.46242 v -7.416132 q 0,-1.1931313 -0.37432,-1.754605 -0.37431,-0.5848684 -1.3335,-0.5848684 -0.4211,0 -0.81881,0.1169737 -0.39771,0.093579 -0.72524,0.3275263 -0.30413,0.2339473 -0.49129,0.5848684 -0.18716,0.327526 -0.18716,0.772026 v 7.954211 z"
         style="font-style:normal;font-variant:normal;font-weight:bold;font-stretch:normal;font-family:'IBM Plex Sans';-inkscape-font-specification:'IBM Plex Sans Bold';fill:#3c3c3c;fill-opacity:1;stroke-width:0.58486843"
         id="path4501" />
    </g>
  </g>
</svg>
