<?xml version="1.0" encoding="UTF-8" standalone="no"?>
<!-- Created with Inkscape (http://www.inkscape.org/) -->

<svg
   xmlns:dc="http://purl.org/dc/elements/1.1/"
   xmlns:cc="http://creativecommons.org/ns#"
   xmlns:rdf="http://www.w3.org/1999/02/22-rdf-syntax-ns#"
   xmlns:svg="http://www.w3.org/2000/svg"
   xmlns="http://www.w3.org/2000/svg"
   xmlns:sodipodi="http://sodipodi.sourceforge.net/DTD/sodipodi-0.dtd"
   xmlns:inkscape="http://www.inkscape.org/namespaces/inkscape"
   width="157.11102mm"
   height="78.523293mm"
   viewBox="0 0 157.11102 78.523293"
   version="1.1"
   id="svg8439"
   inkscape:version="0.92.1 r15371"
   sodipodi:docname="JP.svg">
  <defs
     id="defs8433" />
  <sodipodi:namedview
     id="base"
     pagecolor="#ffffff"
     bordercolor="#666666"
     borderopacity="1.0"
     inkscape:pageopacity="0.0"
     inkscape:pageshadow="2"
     inkscape:zoom="0.98994949"
     inkscape:cx="226.29756"
     inkscape:cy="132.63851"
     inkscape:document-units="mm"
     inkscape:current-layer="layer1"
     showgrid="false"
     fit-margin-top="0"
     fit-margin-left="0"
     fit-margin-right="0"
     fit-margin-bottom="0"
     inkscape:window-width="1600"
     inkscape:window-height="1690"
     inkscape:window-x="0"
     inkscape:window-y="54"
     inkscape:window-maximized="0" />
  <metadata
     id="metadata8436">
    <rdf:RDF>
      <cc:Work
         rdf:about="">
        <dc:format>image/svg+xml</dc:format>
        <dc:type
           rdf:resource="http://purl.org/dc/dcmitype/StillImage" />
        <dc:title></dc:title>
      </cc:Work>
    </rdf:RDF>
  </metadata>
  <g
     inkscape:label="Layer 1"
     inkscape:groupmode="layer"
     id="layer1"
     transform="translate(216.89479,28.011646)">
    <g
       id="g7603"
       transform="matrix(0.02645475,0,0,0.0260008,-99.403617,-68.663155)">
      <g
         transform="translate(-14349.138,4212.643)"
         inkscape:label="Coastlines"
         id="layer2">
        <g
           id="g7611"
           transform="matrix(11.842933,0,0,11.842933,1391.8693,-16138.727)"
           style="fill:#dfe0e2;fill-opacity:1;stroke:none">
          <path
             style="fill:#dfe0e2;fill-opacity:1;fill-rule:evenodd;stroke:none;stroke-width:0.44999999;stroke-linecap:butt;stroke-linejoin:miter;stroke-miterlimit:4;stroke-dasharray:none;stroke-opacity:1"
             d="m 876.48422,1342.402 c 1.09732,7.2401 12.97963,4.0364 11.6295,11.2771 7.24402,7.9922 -5.87694,18.3668 -2.73582,28.1399 -4.03661,2.1267 -4.26168,5.7753 -9.35324,7.3029 -0.56893,-1.7654 1.72102,-13.2468 -3.3781,-7.0946 7.48934,7.2235 -8.96615,7.5937 -3.6014,-0.8743 -4.37297,-8.601 9.39995,-16.9458 -0.34246,-24.3018 -8.02472,1.5126 6.66657,6.575 -1.60442,8.3232 -0.59636,-5.526 -8.80102,4.0295 -7.7394,-5.2551 3.56297,0.6903 5.83739,1.2779 0.34973,-2.2759 -3.76897,-6.5666 11.43453,-9.4153 15.20061,-14.3914 0.48856,-0.3925 0.92141,-0.7782 1.575,-0.85 z"
             id="path3240"
             inkscape:connector-curvature="0" />
          <path
             style="fill:#dfe0e2;fill-opacity:1;fill-rule:evenodd;stroke:none;stroke-width:0.44999999;stroke-linecap:butt;stroke-linejoin:miter;stroke-miterlimit:4;stroke-dasharray:none;stroke-opacity:1"
             d="m 993.90921,1143.052 c 10.36139,3.115 16.60409,18.4878 29.67439,19.3082 5.562,4.9275 15.7117,-11.8064 11.7006,-1.8082 -3.4988,6.4847 6.2667,12.4438 7.5601,11.6112 -6.5617,8.7957 -20.2833,4.4589 -23.6466,16.2609 0.262,15.9367 -13.2692,2.3644 -21.07657,0.5783 -5.38506,0.53 -7.45008,7.5932 -13.00252,1.9332 -12.56302,5.5314 17.14779,10.7122 3.31688,13.0148 -5.29686,-2.0566 -4.6769,11.2277 -8.45526,3.7758 3.43664,-7.6892 -10.88233,-14.0384 0.35107,-20.2724 4.00545,-2.8787 -0.52081,-12.4443 7.87665,-7.2962 8.78699,-3.5502 6.57744,-19.3029 5.84601,-27.9156 -1.8953,-2.8101 -2.51743,-6.433 -0.14475,-9.19 z"
             id="path2920"
             inkscape:connector-curvature="0" />
          <path
             style="fill:#dfe0e2;fill-opacity:1;fill-rule:evenodd;stroke:none;stroke-width:0.44999999;stroke-linecap:butt;stroke-linejoin:miter;stroke-miterlimit:4;stroke-dasharray:none;stroke-opacity:1"
             d="m 990.83421,1210.552 c 10.67189,-3.99 6.209,14.6783 14.72019,18.1314 9.0615,9.3984 0.3679,21.8309 -0.6862,30.6847 -11.63673,4.0097 6.2408,21.0729 -4.7078,28.4909 -1.65773,6.3888 7.2914,13.2349 0.7945,17.5501 2.2969,8.1317 -13.08225,14.3056 -7.1859,2.6381 3.04191,-8.2453 -5.67295,-1.4241 -3.13808,3.5019 -9.1059,-7.1745 -4.63817,17.2498 -10.2102,7.8488 -2.53492,-9.9548 -7.08241,9.0448 -13.01561,4.8155 -2.22228,0.015 -12.99362,4.4487 -7.71457,-0.764 -3.79968,3.1971 -9.5782,-7.775 -9.17718,1.3612 4.72899,2.9528 7.52912,8.0201 -0.18229,8.0727 -4.65236,5.2695 -7.75643,19.4801 -16.52071,9.2113 -4.09956,-7.1361 6.14853,-17.9742 -7.30729,-14.6806 -10.27343,0.9943 -20.33051,9.1386 -29.32888,9.1779 -5.71621,-3.7728 -3.86944,13.7945 -9.63997,4.9355 -8.58118,4.8809 -17.0181,-4.318 -5.66703,-7.5453 9.5003,-3.8655 13.94989,-21.041 25.14203,-17.3047 7.97305,-1.4361 17.5683,-5.3553 24.36487,-5.714 2.85334,8.2837 13.12624,-2.8647 10.45258,-8.0704 9.07119,-5.4947 1.58225,-22.48 12.97075,-23.2011 0.72541,2.8936 -7.01464,10.1264 1.4883,10.6606 11.03172,-4.7625 17.95469,-16.6568 23.75043,-26.8802 1.6879,-7.3476 8.47059,-24.3613 2.065,-26.1649 -5.20059,2.7613 5.22698,-7.986 -1.39248,-10.9197 0.82696,-4.2977 3.18528,-7.355 5.11578,-11.9334 3.58262,1.9283 6.19844,8.7582 10.33184,1.2307 -0.29652,-5.2749 -9.50425,3.5468 -5.32208,-5.133 z"
             id="path2616-9"
             inkscape:connector-curvature="0" />
          <path
             style="fill:#dfe0e2;fill-opacity:1;fill-rule:evenodd;stroke:none;stroke-width:0.44999999;stroke-linecap:butt;stroke-linejoin:miter;stroke-miterlimit:4;stroke-dasharray:none;stroke-opacity:1"
             d="m 926.38422,1333.352 c 4.41399,-11.5021 4.836,5.8193 0,0 z"
             id="path3585"
             inkscape:connector-curvature="0" />
          <path
             style="fill:#dfe0e2;fill-opacity:1;fill-rule:evenodd;stroke:none;stroke-width:0.44999999;stroke-linecap:butt;stroke-linejoin:miter;stroke-miterlimit:4;stroke-dasharray:none;stroke-opacity:1"
             d="m 917.63422,1333.852 c 12.58051,-0.4649 8.35331,11.9199 1.34517,16.2575 -11.42472,-11.7002 -11.64383,16.9009 -23.17341,8.2233 6.80583,-4.1432 -4.44338,-10.3982 -2.74513,-7.9736 6.85872,-1.8169 7.43022,-14.9637 15.92303,-9.6251 3.74549,-1.3422 3.59439,-8.0102 8.65034,-6.8821 z"
             id="path2468"
             inkscape:connector-curvature="0" />
          <path
             style="fill:#dfe0e2;fill-opacity:1;fill-rule:evenodd;stroke:none;stroke-width:0.44999999;stroke-linecap:butt;stroke-linejoin:miter;stroke-miterlimit:4;stroke-dasharray:none;stroke-opacity:1"
             d="m 967.28421,1265.452 c 5.78642,-1.4765 -1.07939,13.5722 -1.10668,3.8014 0.14326,-1.2857 0.15815,-2.7861 1.10668,-3.8014 z"
             id="path3302"
             inkscape:connector-curvature="0" />
        </g>
      </g>
    </g>
    <text
       xml:space="preserve"
       style="font-style:normal;font-variant:normal;font-weight:bold;font-stretch:normal;font-size:23.39473724px;line-height:1.25;font-family:'Liberation Sans';-inkscape-font-specification:'Liberation Sans Bold';letter-spacing:0px;word-spacing:0px;fill:#3c3c3c;fill-opacity:1;stroke:none;stroke-width:0.58486843"
       x="-168.07715"
       y="18.555439"
       id="JP_Text"
       inkscape:label=""><tspan
         sodipodi:role="line"
         id="tspan7613"
         x="-168.07715"
         y="18.555439"
         style="font-style:normal;font-variant:normal;font-weight:bold;font-stretch:normal;font-family:'Liberation Sans';-inkscape-font-specification:'Liberation Sans Bold';fill:#3c3c3c;fill-opacity:1;stroke-width:0.58486843">Japan</tspan></text>
  </g>
</svg>
