<?xml version="1.0" encoding="UTF-8" standalone="no"?>
<!-- Created with Inkscape (http://www.inkscape.org/) -->

<svg
   xmlns:dc="http://purl.org/dc/elements/1.1/"
   xmlns:cc="http://creativecommons.org/ns#"
   xmlns:rdf="http://www.w3.org/1999/02/22-rdf-syntax-ns#"
   xmlns:svg="http://www.w3.org/2000/svg"
   xmlns="http://www.w3.org/2000/svg"
   xmlns:sodipodi="http://sodipodi.sourceforge.net/DTD/sodipodi-0.dtd"
   xmlns:inkscape="http://www.inkscape.org/namespaces/inkscape"
   width="157.11102mm"
   height="78.523293mm"
   viewBox="0 0 157.11102 78.523293"
   version="1.1"
   id="svg9037"
   inkscape:version="0.92.1 r15371"
   sodipodi:docname="OTHER.svg">
  <defs
     id="defs9031" />
  <sodipodi:namedview
     id="base"
     pagecolor="#ffffff"
     bordercolor="#666666"
     borderopacity="1.0"
     inkscape:pageopacity="0.0"
     inkscape:pageshadow="2"
     inkscape:zoom="1.979899"
     inkscape:cx="-29.256111"
     inkscape:cy="280.7032"
     inkscape:document-units="mm"
     inkscape:current-layer="layer1"
     showgrid="false"
     fit-margin-top="0"
     fit-margin-left="0"
     fit-margin-right="0"
     fit-margin-bottom="0"
     inkscape:window-width="3200"
     inkscape:window-height="1690"
     inkscape:window-x="0"
     inkscape:window-y="54"
     inkscape:window-maximized="1" />
  <metadata
     id="metadata9034">
    <rdf:RDF>
      <cc:Work
         rdf:about="">
        <dc:format>image/svg+xml</dc:format>
        <dc:type
           rdf:resource="http://purl.org/dc/dcmitype/StillImage" />
        <dc:title />
      </cc:Work>
    </rdf:RDF>
  </metadata>
  <g
     inkscape:label="Layer 1"
     inkscape:groupmode="layer"
     id="layer1"
     transform="translate(142.05551,-148.12526)">
    <g
       transform="matrix(0.26458333,0,0,0.26458333,-589.55932,88.291079)"
       id="OTHER_text"
       inkscape:label="">
      <g
         aria-label="Other"
         style="font-style:normal;font-variant:normal;font-weight:bold;font-stretch:normal;font-size:88.42105103px;line-height:1.25;font-family:'IBM Plex Sans';-inkscape-font-specification:'IBM Plex Sans Bold';letter-spacing:0px;word-spacing:0px;fill:#3c3c3c;fill-opacity:1;stroke:none;stroke-width:2.21052647"
         id="text7631">
        <path
           d="m 1775.2314,358.33364 q -6.1011,0 -11.1411,-2.03369 -5.04,-2.03368 -8.5768,-6.01263 -3.5369,-4.06737 -5.4821,-9.99158 -1.9453,-6.01263 -1.9453,-13.8821 0,-7.86948 1.9453,-13.79369 1.9452,-6.01263 5.4821,-9.99158 3.5368,-4.06736 8.5768,-6.10105 5.04,-2.03368 11.1411,-2.03368 6.101,0 11.141,2.03368 5.04,2.03369 8.5768,6.10105 3.5369,3.97895 5.4822,9.99158 1.9452,5.92421 1.9452,13.79369 0,7.86947 -1.9452,13.8821 -1.9453,5.92421 -5.4822,9.99158 -3.5368,3.97895 -8.5768,6.01263 -5.04,2.03369 -11.141,2.03369 z m 0,-11.93685 q 6.101,0 9.461,-3.97894 3.4484,-3.97895 3.4484,-11.40632 v -9.19579 q 0,-7.42737 -3.4484,-11.40631 -3.36,-3.97895 -9.461,-3.97895 -6.1011,0 -9.5495,3.97895 -3.36,3.97894 -3.36,11.40631 v 9.19579 q 0,7.42737 3.36,11.40632 3.4484,3.97894 9.5495,3.97894 z"
           style="font-style:normal;font-variant:normal;font-weight:bold;font-stretch:normal;font-family:'IBM Plex Sans';-inkscape-font-specification:'IBM Plex Sans Bold';fill:#3c3c3c;fill-opacity:1;stroke-width:2.21052647"
           id="path4509" />
        <path
           d="m 1829.2428,357.27258 q -6.8084,0 -10.3453,-3.44842 -3.4484,-3.44842 -3.4484,-10.08 v -22.72421 h -6.5431 v -10.16842 h 3.2715 q 2.6527,0 3.6253,-1.23789 0.9726,-1.32632 0.9726,-3.71369 v -7.60421 h 11.76 v 12.55579 h 9.1958 v 10.16842 h -9.1958 v 26.08421 h 8.4885 v 10.16842 z"
           style="font-style:normal;font-variant:normal;font-weight:bold;font-stretch:normal;font-family:'IBM Plex Sans';-inkscape-font-specification:'IBM Plex Sans Bold';fill:#3c3c3c;fill-opacity:1;stroke-width:2.21052647"
           id="path4511" />
        <path
           d="m 1846.822,291.84101 h 13.0863 V 318.721 h 0.5306 q 1.2379,-3.62526 4.3326,-6.27789 3.0947,-2.65263 8.5768,-2.65263 7.1621,0 10.7874,4.77474 3.7137,4.77473 3.7137,13.61684 v 29.09052 h -13.0863 v -28.02947 q 0,-4.50947 -1.4148,-6.63158 -1.4147,-2.21053 -5.04,-2.21053 -1.5915,0 -3.0947,0.44211 -1.5032,0.35368 -2.7411,1.23789 -1.1494,0.88422 -1.8568,2.21053 -0.7074,1.2379 -0.7074,2.9179 v 30.06315 h -13.0863 z"
           style="font-style:normal;font-variant:normal;font-weight:bold;font-stretch:normal;font-family:'IBM Plex Sans';-inkscape-font-specification:'IBM Plex Sans Bold';fill:#3c3c3c;fill-opacity:1;stroke-width:2.21052647"
           id="path4513" />
        <path
           d="m 1918.8589,358.33364 q -5.3053,0 -9.461,-1.68 -4.1558,-1.76843 -7.0737,-4.86316 -2.8295,-3.18316 -4.3327,-7.69263 -1.4147,-4.50948 -1.4147,-10.08 0,-5.48211 1.4147,-9.90316 1.4148,-4.50947 4.1558,-7.69263 2.8295,-3.18316 6.8969,-4.86316 4.0673,-1.76842 9.2842,-1.76842 5.7474,0 9.8147,1.94526 4.1558,1.94526 6.72,5.21684 2.6527,3.27158 3.8021,7.60421 1.2379,4.24421 1.2379,8.93053 v 3.89053 h -29.7979 v 0.70736 q 0,4.5979 2.4758,7.33895 2.4758,2.65263 7.7811,2.65263 4.0673,0 6.6315,-1.59158 2.5643,-1.68 4.7748,-3.97894 l 6.5431,8.13473 q -3.0947,3.62527 -8.1347,5.65895 -4.9516,2.03369 -11.3179,2.03369 z m -0.2653,-38.90527 q -3.9789,0 -6.2778,2.65263 -2.2106,2.56422 -2.2106,6.89685 v 0.70737 h 16.2695 v -0.79579 q 0,-4.24421 -1.9453,-6.80843 -1.8568,-2.65263 -5.8358,-2.65263 z"
           style="font-style:normal;font-variant:normal;font-weight:bold;font-stretch:normal;font-family:'IBM Plex Sans';-inkscape-font-specification:'IBM Plex Sans Bold';fill:#3c3c3c;fill-opacity:1;stroke-width:2.21052647"
           id="path4515" />
        <path
           d="m 1949.2315,357.27258 v -46.42105 h 13.0864 v 10.08 h 0.4421 q 0.3537,-1.94526 1.2379,-3.71368 0.8842,-1.85685 2.2989,-3.27158 1.5032,-1.41474 3.5369,-2.21053 2.0336,-0.88421 4.7747,-0.88421 h 2.2989 v 12.20211 h -3.2715 q -5.7474,0 -8.5769,1.50315 -2.741,1.50316 -2.741,5.57053 v 27.14526 z"
           style="font-style:normal;font-variant:normal;font-weight:bold;font-stretch:normal;font-family:'IBM Plex Sans';-inkscape-font-specification:'IBM Plex Sans Bold';fill:#3c3c3c;fill-opacity:1;stroke-width:2.21052647"
           id="path4517" />
      </g>
      <g
         aria-label="Countries
"
         style="font-style:normal;font-variant:normal;font-weight:bold;font-stretch:normal;font-size:88.42105103px;line-height:1.25;font-family:'IBM Plex Sans';-inkscape-font-specification:'IBM Plex Sans Bold';letter-spacing:0px;word-spacing:0px;fill:#3c3c3c;fill-opacity:1;stroke:none;stroke-width:2.21052647"
         id="text7635">
        <path
           d="m 1859.5565,424.28768 q -6.2779,0 -11.3179,-1.94527 -5.04,-2.03368 -8.5768,-5.92421 -3.5369,-3.97894 -5.4821,-9.81473 -1.9453,-5.92421 -1.9453,-13.79369 0,-7.78105 1.9453,-13.79368 1.9452,-6.10105 5.4821,-10.16842 3.5368,-4.15579 8.5768,-6.2779 5.04,-2.1221 11.3179,-2.1221 8.5769,0 14.1474,3.53684 5.5705,3.44842 8.9305,10.96421 l -11.5832,6.01263 q -1.2378,-3.89053 -3.8905,-6.18947 -2.5642,-2.38737 -7.6042,-2.38737 -5.9242,0 -9.5495,3.89053 -3.5368,3.8021 -3.5368,11.14105 v 9.90316 q 0,7.33894 3.5368,11.22947 3.6253,3.8021 9.5495,3.8021 4.9516,0 7.8695,-2.65263 3.0063,-2.74105 4.421,-6.54316 l 10.9642,6.36632 q -3.4484,7.07368 -9.1073,10.96421 -5.5705,3.80211 -14.1474,3.80211 z"
           style="font-style:normal;font-variant:normal;font-weight:bold;font-stretch:normal;font-family:'IBM Plex Sans';-inkscape-font-specification:'IBM Plex Sans Bold';fill:#3c3c3c;fill-opacity:1;stroke-width:2.21052647"
           id="path4490" />
        <path
           d="m 1910.2563,424.28768 q -5.1284,0 -9.1958,-1.68 -3.9789,-1.68 -6.8084,-4.86316 -2.741,-3.18316 -4.2442,-7.69263 -1.5032,-4.50948 -1.5032,-10.08 0,-5.57053 1.5032,-10.08 1.5032,-4.50948 4.2442,-7.60421 2.8295,-3.18316 6.8084,-4.86316 4.0674,-1.68 9.1958,-1.68 5.1284,0 9.1074,1.68 4.0674,1.68 6.8084,4.86316 2.8295,3.09473 4.3326,7.60421 1.5032,4.50947 1.5032,10.08 0,5.57052 -1.5032,10.08 -1.5031,4.50947 -4.3326,7.69263 -2.741,3.18316 -6.8084,4.86316 -3.979,1.68 -9.1074,1.68 z m 0,-10.34527 q 3.8905,0 6.0126,-2.38737 2.1222,-2.38736 2.1222,-6.80842 v -9.46105 q 0,-4.42105 -2.1222,-6.80842 -2.1221,-2.38737 -6.0126,-2.38737 -3.8905,0 -6.0126,2.38737 -2.1221,2.38737 -2.1221,6.80842 v 9.46105 q 0,4.42106 2.1221,6.80842 2.1221,2.38737 6.0126,2.38737 z"
           style="font-style:normal;font-variant:normal;font-weight:bold;font-stretch:normal;font-family:'IBM Plex Sans';-inkscape-font-specification:'IBM Plex Sans Bold';fill:#3c3c3c;fill-opacity:1;stroke-width:2.21052647"
           id="path4492" />
        <path
           d="m 1968.7427,415.44557 h -0.4421 q -0.619,1.76842 -1.68,3.36 -0.9726,1.59158 -2.5642,2.82947 -1.5916,1.2379 -3.8021,1.94527 -2.1221,0.70737 -4.9516,0.70737 -7.1621,0 -10.8758,-4.68632 -3.6253,-4.77474 -3.6253,-13.61684 v -29.17895 h 13.0864 v 28.02947 q 0,4.24422 1.5031,6.54316 1.5032,2.29895 5.1284,2.29895 1.5032,0 3.0064,-0.44211 1.5031,-0.4421 2.6526,-1.23789 1.1495,-0.88421 1.8568,-2.12211 0.7074,-1.23789 0.7074,-2.91789 v -30.15158 h 13.0863 v 46.42105 h -13.0863 z"
           style="font-style:normal;font-variant:normal;font-weight:bold;font-stretch:normal;font-family:'IBM Plex Sans';-inkscape-font-specification:'IBM Plex Sans Bold';fill:#3c3c3c;fill-opacity:1;stroke-width:2.21052647"
           id="path4494" />
        <path
           d="m 1994.0049,423.22662 v -46.42105 h 13.0863 v 7.86948 h 0.5305 q 1.2379,-3.62527 4.3326,-6.2779 3.0948,-2.65263 8.5769,-2.65263 7.1621,0 10.7873,4.77474 3.7137,4.77473 3.7137,13.61684 v 29.09052 h -13.0863 v -28.02947 q 0,-4.50947 -1.4147,-6.63158 -1.4148,-2.21052 -5.04,-2.21052 -1.5916,0 -3.0948,0.4421 -1.5031,0.35368 -2.741,1.2379 -1.1495,0.88421 -1.8569,2.21052 -0.7073,1.2379 -0.7073,2.9179 v 30.06315 z"
           style="font-style:normal;font-variant:normal;font-weight:bold;font-stretch:normal;font-family:'IBM Plex Sans';-inkscape-font-specification:'IBM Plex Sans Bold';fill:#3c3c3c;fill-opacity:1;stroke-width:2.21052647"
           id="path4496" />
        <path
           d="m 2062.947,423.22662 q -6.8084,0 -10.3452,-3.44842 -3.4485,-3.44842 -3.4485,-10.08 v -22.72421 h -6.5431 v -10.16842 h 3.2716 q 2.6526,0 3.6252,-1.23789 0.9727,-1.32632 0.9727,-3.71369 v -7.60421 h 11.76 v 12.55579 h 9.1958 v 10.16842 h -9.1958 v 26.08421 h 8.4884 v 10.16842 z"
           style="font-style:normal;font-variant:normal;font-weight:bold;font-stretch:normal;font-family:'IBM Plex Sans';-inkscape-font-specification:'IBM Plex Sans Bold';fill:#3c3c3c;fill-opacity:1;stroke-width:2.21052647"
           id="path4498" />
        <path
           d="m 2080.5262,423.22662 v -46.42105 h 13.0864 v 10.08 h 0.4421 q 0.3536,-1.94526 1.2379,-3.71368 0.8842,-1.85684 2.2989,-3.27158 1.5032,-1.41474 3.5368,-2.21053 2.0337,-0.88421 4.7748,-0.88421 h 2.2989 v 12.20211 h -3.2716 q -5.7473,0 -8.5768,1.50315 -2.741,1.50316 -2.741,5.57053 v 27.14526 z"
           style="font-style:normal;font-variant:normal;font-weight:bold;font-stretch:normal;font-family:'IBM Plex Sans';-inkscape-font-specification:'IBM Plex Sans Bold';fill:#3c3c3c;fill-opacity:1;stroke-width:2.21052647"
           id="path4500" />
        <path
           d="m 2122.8178,371.85399 q -3.979,0 -5.8358,-1.76842 -1.7684,-1.85684 -1.7684,-4.68631 v -1.94527 q 0,-2.82947 1.7684,-4.59789 1.8568,-1.85684 5.8358,-1.85684 3.9789,0 5.7473,1.85684 1.8569,1.76842 1.8569,4.59789 v 1.94527 q 0,2.82947 -1.8569,4.68631 -1.7684,1.76842 -5.7473,1.76842 z m -6.5432,4.95158 h 13.0863 v 46.42105 h -13.0863 z"
           style="font-style:normal;font-variant:normal;font-weight:bold;font-stretch:normal;font-family:'IBM Plex Sans';-inkscape-font-specification:'IBM Plex Sans Bold';fill:#3c3c3c;fill-opacity:1;stroke-width:2.21052647"
           id="path4502" />
        <path
           d="m 2160.8526,424.28768 q -5.3052,0 -9.461,-1.68 -4.1558,-1.76842 -7.0737,-4.86316 -2.8295,-3.18316 -4.3326,-7.69263 -1.4148,-4.50948 -1.4148,-10.08 0,-5.48211 1.4148,-9.90316 1.4147,-4.50947 4.1557,-7.69263 2.8295,-3.18316 6.8969,-4.86316 4.0674,-1.76842 9.2842,-1.76842 5.7474,0 9.8147,1.94526 4.1558,1.94527 6.72,5.21684 2.6527,3.27158 3.8021,7.60421 1.2379,4.24422 1.2379,8.93053 v 3.89053 h -29.7979 v 0.70737 q 0,4.59789 2.4758,7.33894 2.4758,2.65263 7.7811,2.65263 4.0673,0 6.6316,-1.59157 2.5642,-1.68 4.7747,-3.97895 l 6.5432,8.13473 q -3.0948,3.62527 -8.1348,5.65895 -4.9516,2.03369 -11.3179,2.03369 z m -0.2652,-38.90527 q -3.979,0 -6.2779,2.65264 -2.2106,2.56421 -2.2106,6.89684 v 0.70737 h 16.2695 v -0.79579 q 0,-4.24421 -1.9453,-6.80842 -1.8568,-2.65264 -5.8357,-2.65264 z"
           style="font-style:normal;font-variant:normal;font-weight:bold;font-stretch:normal;font-family:'IBM Plex Sans';-inkscape-font-specification:'IBM Plex Sans Bold';fill:#3c3c3c;fill-opacity:1;stroke-width:2.21052647"
           id="path4504" />
        <path
           d="m 2206.9642,424.28768 q -6.72,0 -11.3179,-2.12211 -4.5979,-2.21053 -8.2231,-6.18947 l 7.6926,-7.78106 q 2.4758,2.74106 5.4821,4.33264 3.0063,1.59158 6.8084,1.59158 3.8905,0 5.3937,-1.14948 1.5032,-1.23789 1.5032,-3.27158 0,-3.27158 -4.6864,-3.89052 l -5.04,-0.61895 q -15.6505,-1.94526 -15.6505,-14.32421 0,-3.36 1.2379,-6.10105 1.3263,-2.82948 3.6253,-4.77474 2.3873,-2.03368 5.6589,-3.09474 3.36,-1.14947 7.5158,-1.14947 3.6253,0 6.3663,0.53053 2.8295,0.4421 4.9516,1.41473 2.2105,0.88421 3.9789,2.29895 1.8569,1.32632 3.6253,3.00632 l -7.5158,7.69263 q -2.2105,-2.21053 -5.04,-3.44842 -2.741,-1.32632 -5.6589,-1.32632 -3.36,0 -4.7748,1.06105 -1.4147,1.06106 -1.4147,2.82948 0,1.85684 0.9726,2.91789 1.0611,0.97263 3.8906,1.41474 l 5.2168,0.70737 q 15.2968,2.03368 15.2968,13.97052 0,3.36 -1.4147,6.18948 -1.4147,2.82947 -4.0674,4.95157 -2.5642,2.03369 -6.2779,3.18316 -3.6252,1.14948 -8.1347,1.14948 z"
           style="font-style:normal;font-variant:normal;font-weight:bold;font-stretch:normal;font-family:'IBM Plex Sans';-inkscape-font-specification:'IBM Plex Sans Bold';fill:#3c3c3c;fill-opacity:1;stroke-width:2.21052647"
           id="path4506" />
      </g>
    </g>
    <g
       aria-label="..."
       style="font-style:normal;font-variant:normal;font-weight:bold;font-stretch:normal;font-size:56.31119156px;line-height:1.25;font-family:'IBM Plex Sans';-inkscape-font-specification:'IBM Plex Sans Bold';letter-spacing:0px;word-spacing:0px;fill:#dfe0e2;fill-opacity:1;stroke:none;stroke-width:1.40777981"
       id="text7641">
      <path
         d="m -32.792769,214.50869 q -2.534004,0 -3.77285,-1.23885 -1.182535,-1.29515 -1.182535,-3.26605 v -1.12622 q 0,-1.97089 1.182535,-3.20974 1.238846,-1.29515 3.77285,-1.29515 2.534004,0 3.716539,1.29515 1.238846,1.23885 1.238846,3.20974 v 1.12622 q 0,1.9709 -1.238846,3.26605 -1.182535,1.23885 -3.716539,1.23885 z"
         style="font-style:normal;font-variant:normal;font-weight:bold;font-stretch:normal;font-family:'IBM Plex Sans';-inkscape-font-specification:'IBM Plex Sans Bold';fill:#dfe0e2;fill-opacity:1;stroke-width:1.40777981"
         id="path4520" />
      <path
         d="m -15.305504,214.50869 q -2.534004,0 -3.77285,-1.23885 -1.182535,-1.29515 -1.182535,-3.26605 v -1.12622 q 0,-1.97089 1.182535,-3.20974 1.238846,-1.29515 3.77285,-1.29515 2.534003,0 3.716538,1.29515 1.238846,1.23885 1.238846,3.20974 v 1.12622 q 0,1.9709 -1.238846,3.26605 -1.182535,1.23885 -3.716538,1.23885 z"
         style="font-style:normal;font-variant:normal;font-weight:bold;font-stretch:normal;font-family:'IBM Plex Sans';-inkscape-font-specification:'IBM Plex Sans Bold';fill:#dfe0e2;fill-opacity:1;stroke-width:1.40777981"
         id="path4522" />
      <path
         d="m 2.1817602,214.50869 q -2.53400359,0 -3.7728498,-1.23885 -1.182535,-1.29515 -1.182535,-3.26605 v -1.12622 q 0,-1.97089 1.182535,-3.20974 1.23884621,-1.29515 3.7728498,-1.29515 2.5340037,0 3.7165387,1.29515 1.2388462,1.23885 1.2388462,3.20974 v 1.12622 q 0,1.9709 -1.2388462,3.26605 -1.182535,1.23885 -3.7165387,1.23885 z"
         style="font-style:normal;font-variant:normal;font-weight:bold;font-stretch:normal;font-family:'IBM Plex Sans';-inkscape-font-specification:'IBM Plex Sans Bold';fill:#dfe0e2;fill-opacity:1;stroke-width:1.40777981"
         id="path4524" />
    </g>
  </g>
</svg>
