<?xml version="1.0" encoding="UTF-8" standalone="no"?>
<!-- Created with Inkscape (http://www.inkscape.org/) -->

<svg
   xmlns:dc="http://purl.org/dc/elements/1.1/"
   xmlns:cc="http://creativecommons.org/ns#"
   xmlns:rdf="http://www.w3.org/1999/02/22-rdf-syntax-ns#"
   xmlns:svg="http://www.w3.org/2000/svg"
   xmlns="http://www.w3.org/2000/svg"
   xmlns:sodipodi="http://sodipodi.sourceforge.net/DTD/sodipodi-0.dtd"
   xmlns:inkscape="http://www.inkscape.org/namespaces/inkscape"
   width="157.11102mm"
   height="78.523293mm"
   viewBox="0 0 157.11102 78.523293"
   version="1.1"
   id="svg5053"
   inkscape:version="0.92.1 r15371"
   sodipodi:docname="WORLD.svg">
  <defs
     id="defs5047" />
  <sodipodi:namedview
     id="base"
     pagecolor="#ffffff"
     bordercolor="#666666"
     borderopacity="1.0"
     inkscape:pageopacity="0.0"
     inkscape:pageshadow="2"
     inkscape:zoom="1.4"
     inkscape:cx="10.55433"
     inkscape:cy="102.45502"
     inkscape:document-units="mm"
     inkscape:current-layer="layer1"
     showgrid="false"
     fit-margin-top="0"
     fit-margin-left="0"
     fit-margin-right="0"
     fit-margin-bottom="0"
     inkscape:window-width="1600"
     inkscape:window-height="1690"
     inkscape:window-x="0"
     inkscape:window-y="54"
     inkscape:window-maximized="0" />
  <metadata
     id="metadata5050">
    <rdf:RDF>
      <cc:Work
         rdf:about="">
        <dc:format>image/svg+xml</dc:format>
        <dc:type
           rdf:resource="http://purl.org/dc/dcmitype/StillImage" />
        <dc:title />
      </cc:Work>
    </rdf:RDF>
  </metadata>
  <g
     inkscape:label="Layer 1"
     inkscape:groupmode="layer"
     id="layer1"
     transform="translate(98.867996,-120.89635)">
    <path
       style="fill:#dfe0e2;fill-opacity:1;stroke:none;stroke-width:0.00359966;stroke-linecap:round;stroke-linejoin:round;stroke-miterlimit:4;stroke-dasharray:none"
       d="m -38.419319,123.74429 c -1.584061,0.39891 -7.737184,0.19487 -3.159099,0.55937 -4.407164,0.35665 -8.728339,-0.15222 -12.935452,2.20048 -2.613105,-0.53455 4.159038,1.62954 0.615103,0.96744 3.019346,1.40101 8.19232,2.99322 7.524909,3.63321 -1.152393,1.86482 12.781544,0.0967 4.793985,0.89525 -1.702726,0.50492 -7.096098,-0.68055 -4.501515,0.8461 -3.510439,1.5124 5.133658,4.27874 4.057544,1.45566 1.023567,-2.25506 9.78871,-2.90975 6.105075,-3.8583 -1.488889,-1.07293 5.725637,1.0511 0.410237,-1.32273 3.419369,0.34846 3.929433,-1.44549 2.735421,-2.06038 -0.865849,-1.29387 -0.450162,-1.5948 0.480669,-1.7629 5.510106,-1.18288 -2.583101,-1.11148 -2.691712,-0.50904 -2.547409,-0.99798 -10.426806,1.42141 0.502946,-0.48166 -2.375985,-0.64228 -7.19918,-0.0672 -1.837716,-0.33004 1.923732,-0.0799 -2.38252,-0.23862 -2.100395,-0.23246 z m -3.751025,10.62808 0.230558,0.0886 z m -2.660279,1.36418 c -0.217832,0.22401 0.302789,-0.0601 0,0 z m -2.154846,-2.54001 -0.06377,0.0449 z m -7.495381,-9.18056 c -3.493612,0.2653 -11.676539,0.8849 -4.795203,1.23291 4.580361,-0.2337 -4.299426,0.51019 0.103188,1.04532 -3.180768,-0.007 0.227806,0.78587 -3.033475,0.93955 1.66542,0.37496 3.748511,0.86569 3.895117,-0.2869 2.482506,0.0861 2.991485,-0.73828 2.726213,-1.13744 3.176297,-0.99538 1.41187,-0.70327 4.469421,-1.46466 -1.105164,-0.3329 -2.251419,-0.082 -3.365261,-0.32878 z m 10.202227,0.22947 c -0.329724,0.63366 1.900793,-0.18739 0,0 z m -2.666947,0.18151 c 0.256646,0.66885 1.382263,-0.45018 0,0 z m -17.238715,0.50114 c -1.947572,2.60651 6.095894,0.92859 0.131445,0.0172 z m 80.460689,0.0411 c -4.28032,0.1139 2.53241,1.18241 0,0 z m -2.28785,0.0411 c 0.55607,0.1017 0.38309,0.0701 0,0 z m -10.8606696,0.008 c -2.54653495,-0.0649 0.87855,0.60611 0,0 z m -4.303024,0.0491 1.00718905,0.14433 z m -1.888808,0.0993 c -3.806534,0.48712 1.342178,0.46441 0,0 z m 4.914902,0.016 c -2.57696395,-0.33797 0.33366,0.69801 0,0 z m -6.125344,0.0251 c -2.924493,0.0681 1.284525,0.29737 0,0 z m 4.22322605,0.18837 c 0.451591,0.64837 1.08807295,-0.53884 0,0 z m -15.88862645,0.008 c 0.05173,1.41741 5.224595,-0.17326 0,0 z m 32.894564,0.15639 c -3.31357,0.58908 3.0186,0.64075 0,0 z m -83.819315,0.008 0.185208,0.18856 z m 81.478275,0.0502 c -0.58253,0.47899 1.79978,-0.21456 0,0 z m -32.109803,0.008 c -4.004707,1.35498 -0.356553,-0.10774 0.625263,0.15747 z m 36.605683,0.32878 c -2.85731,1.73181 3.09957,-0.0192 0,0 z m -87.769856,0.024 c -0.718608,1.10446 3.514937,0.47661 0.0093,0.002 z m 2.540582,0.29681 c 0.426085,1.36936 2.704783,-0.63809 0,0 z m -5.300636,0.024 c -3.25755,0.0201 1.167527,0.61905 0,0 z m 55.999248,0.0822 c -1.027271,0.35307 1.517174,0.0993 0,0 z m 36.313082,0.14841 -0.1103,0.0613 z m -35.514993,0.0411 c -2.077243,0.45737 2.071291,0.46832 0,0 z m 35.967243,0.0331 c -0.56546,0.0645 -0.38565,0.044 0,0 z m -92.751298,0.0411 c -3.336369,-0.0764 0.831401,0.7266 0,0 z m -1.702594,0.024 c -0.839999,0.21961 0.981155,0.20531 0,0 z m 5.14104,0.0902 c 0.602377,0.11616 0.367215,0.0708 0,0 z m 2.919677,0.0411 c -0.647197,0.62665 2.066528,-0.36511 0,0 z m -4.38949,0.0331 c 0.508476,0.40772 0.382111,0.30639 0,0 z m 89.352755,0.008 c -3.36161,1.75958 -10.2867896,0.69118 -9.28883,4.59269 -1.7275996,-0.37511 -5.2797396,-2.95199 -2.3054996,0.54224 1.9769396,-1.13067 -5.20878,2.18834 -1.67545,-0.46346 -0.29244,-5.2295 -2.59744,2.36812 -5.48833,-0.0168 -4.370839,-2.06665 -8.657221,4.23526 -11.132028,1.31357 6.90536,0.0287 -3.9278724,-3.7046 -6.4197714,-1.68791 -3.137561,2.66673 -8.427693,4.89329 -2.621333,6.94967 2.29071,1.33443 2.855622,-6.9744 4.690878,-4.11158 -3.705702,2.46158 5.2280084,1.93872 -0.110729,2.72076 -0.44196,5.04414 -6.608709,4.62226 -6.42149,2.37371 -1.622055,2.16876 -6.27544,2.11479 -4.393803,5.3931 -6.299094,0.41119 -1.359905,7.45015 1.502013,1.84745 1.527969,-5.56745 8.765619,4.65688 5.520531,-1.50363 -2.081318,-3.72663 6.658399,3.77602 3.574283,2.44226 2.281555,-0.97018 3.616881,-6.67873 6.0663404,-4.04278 4.952894,2.09411 0.490908,3.69584 -2.7481214,2.81538 -5.73622,2.47671 5.7600854,1.90497 1.170014,5.34606 -4.505854,-0.0971 -8.803905,-0.27816 -11.901382,-3.12425 -7.313983,-0.48055 -12.118657,9.91401 -7.781052,15.67236 3.88292,1.59876 11.0499,-0.33921 10.107295,6.71387 2.604929,3.48401 -1.272116,11.02998 3.923586,14.79713 5.397341,0.68239 8.8354164,-8.96561 7.8633644,-13.33357 -0.0508,-4.48639 9.213265,-9.5499 1.528604,-11.19157 -2.767357,-1.67254 -4.4638924,-12.46538 -1.688492,-5.46173 -0.239395,6.95117 8.93312705,5.82245 8.38628605,-0.29065 -1.34199305,-1.27904 -4.59036205,0.15667 -3.53922505,-3.05021 3.36034105,4.01017 11.678102,0.91893 10.284912,7.6162 0.94247,4.38046 2.95127,3.12436 3.3171796,-0.46363 1.74602,-3.0444 5.34663,-4.77864 5.69357,-0.0896 3.04017,-0.054 0.86887,8.4681 3.64813,6.78818 -1.21748,-2.25207 -2.44266,-4.06693 0.99261,-3.07971 2.80871,-2.07235 -1.73601,-7.629 3.94653,-7.19773 5.3317,-1.82881 -0.4186,-9.62052 4.02275,-8.38769 2.53137,4.87854 0.97853,-2.75924 4.57718,-3.04353 2.66124,-1.24309 2.57501,-4.13975 1.88005,-4.94261 3.89877,-0.90016 7.21995,-4.40305 10.4248,-4.34599 -2.83155,0.43848 -5.27312,7.75522 -1.22132,4.08688 -0.21399,-4.62039 8.70826,-2.65247 6.78474,-5.68525 2.01475,0.34108 7.66122,0.0567 2.68605,-1.30827 -5.8011,-1.15765 -11.78838,-1.10423 -17.56368,-2.34211 -4.11136,1.52185 -16.15585,-0.31299 -14.36772,-0.79203 5.60663,-1.90147 -2.85033,-1.7149 -1.92344,-2.05527 z m -4.39616,30.74951 -0.0275,-0.14831 z m -1.46981,-1.45551 -0.0159,0.0953 z m -36.798569,-15.63275 0.108744,0.0327 z m 0.73824,-4.57887 -0.0508,-0.0633 z m 5.300636,-4.67589 c -0.484848,-0.47738 -0.589967,0.73091 0,0 z m -46.36897,-4.36539 c -0.102049,0.72665 1.155727,-0.35835 0,0 z m -10.973752,0.0582 c -4.688523,0.40312 2.341562,-1.03596 0,0 z m 19.533235,0.0411 c -0.652859,0.0174 0.594863,0.0934 0,0 z m -0.651748,0.008 0.19939,0.061 z m 68.868448,0.0742 -0.12795,0.0642 z m -0.13967,0.0571 -0.018,0.0111 z m 3.11256,0 c -0.5787,0.19047 -0.33087,0.1089 0,0 z m -81.84407,0.0742 c 1.24976,2.48159 10.501921,0.59199 3.302926,0.81145 -1.10482,-0.31635 -2.076714,-0.99965 -3.302926,-0.81145 z m 69.5933804,0.0251 c -2.7968,-0.60665 -8.087439,3.17536 -2.56635,0.85123 0.49138,-0.33644 3.13235,0.11958 2.56635,-0.85123 z m -77.4345984,0.0651 c -0.890667,0.18261 1.003697,0.0477 0,0 z m 10.302002,0.0251 c -0.714137,-0.0527 0.429551,0.43315 0,0 z m -8.147182,0.016 c -1.582077,0.74006 -4.945698,0.67603 -0.962052,0.87813 -2.908247,1.09988 5.295239,-0.56242 0.962052,-0.87813 z m 3.544861,0.0331 c -1.217692,0.0533 0.429815,0.18096 0,0 z m 34.849884,0 0.03421,0.29098 z m -36.313057,0.0411 c -0.332978,0.73926 0.712894,-0.0371 0,0 z m 2.400935,0 c -2.611966,-0.39159 2.219802,0.88056 0,0 z m -1.828958,0.1895 c -1.547654,-0.61819 0.02143,0.65313 0,0 z m 84.836903,0.008 c -0.58661,0.0827 -0.3419,0.0482 0,0 z m 18.05011,0.0411 c 0.40068,1.97171 4.12274,-0.55779 0,0 z m -92.684786,0.0491 c -0.624628,-0.16471 -0.06104,0.41238 0,0 z m -16.473885,0.008 c -0.983429,-0.14042 -0.374755,0.78139 0,0 z m 6.544337,0.0662 -0.295698,0.10101 z m 101.317424,0.0982 c -0.52091,0.18009 0.39018,0.32912 0,0 z m -98.231483,0.0902 c -1.582737,0.60089 2.12598,0.52589 0,0 z m 102.793903,0.0172 c 1.06352,1.1987 2.5785,-0.5046 0,0 z m -106.711191,0.0822 c -1.06471,0.14068 0.903102,0.37668 0,0 z m 36.705461,0.016 c -1.936354,-0.45916 0.08128,0.39776 0,0 z m -44.180893,0.45206 c -4.994804,3.28696 6.138969,-0.16557 0,0 z m 99.508413,0.008 c -0.66315,0.62014 1.91294,-0.30263 0,0 z m -56.684277,0.0411 c -0.841693,0.39477 1.2877,0.0149 0,0 z m 68.788647,0.0913 c -0.48778,0.50975 0.92742,-0.14495 0,0 z m -2.14153,0.016 c 0.4582,0.23264 0.38822,0.19711 0,0 z m -97.493274,0.0411 c -2.095632,1.65247 0.342265,0.353 0.974566,0.10359 z m -1.789033,0.0251 c -1.051084,-0.25499 -0.285962,0.49955 0,0 z m -0.931122,0.0982 c -2.296689,1.89146 3.644662,0.52426 0,0 z m 102.893679,0.008 c -2.30751,0.48824 2.32945,0.39416 0,0 z m -97.240539,0.0411 c -2.365242,2.2226 5.096854,0.6136 5.830279,3.03432 2.541773,1.67758 -4.603829,1.33411 0.245005,2.05119 4.095908,1.71084 3.396456,-2.08648 2.708486,-1.6234 4.249949,0.13191 0.179203,-3.67462 -1.188085,-1.945 -2.658718,-2.21057 -7.368963,2.08395 -7.595685,-1.51711 z m -7.9942,0.0411 c -1.662059,0.11656 1.284738,0.60713 0,0 z m 10.63453,0 c 0.757767,1.45886 2.793365,-0.60756 0,0 z m 87.018339,0 c -1.20214,1.51308 2.61977,-0.20578 0,0 z m -98.657121,0.0742 c -0.289666,0.10341 0.38944,-0.0221 0,0 z m 100.000591,0.0491 c -1.05463,1.2718 2.23406,-0.28146 0,0 z m -23.9360296,0.008 c -1.56377,0.1403 0.97877,0.48623 0,0 z m -40.7624244,0.0502 c -0.340334,0.5271 1.864228,-0.12595 0,0 z m 33.9254574,0.008 c -3.408601,1.71648 3.062707,1.56628 0,0 z m -72.0741144,0.016 c -5.3993,1.14748 -1.122918,1.51829 0.02749,1.62713 -1.990275,2.53211 9.821677,0.14282 2.868189,-0.99426 -0.864367,-0.70873 -2.085022,0.29334 -2.895679,-0.63287 z m 7.55523,0.0993 c -0.508688,0.0687 0.384889,0.26249 0,0 z m 31.271792,0.0651 c -1.147339,0.28647 2.038641,0.0709 0,0 z m -0.399018,0.0993 c 0.638572,0.99442 1.491033,-0.3262 0,0 z m 64.658527,0.13127 c -0.83174,0.48335 1.86905,-0.0301 0,0 z m -94.646746,0.33677 c 0.896567,4.68776 -6.738064,1.34566 -9.680099,2.5422 -4.078182,0.17717 -3.995843,-3.60799 -8.105167,-1.08411 -3.248183,0.12724 -11.750568,-2.86658 -11.517021,1.15915 3.649663,0.59983 -3.974367,1.10246 0.653177,1.5076 -4.492421,2.26297 5.55789,2.6512 -0.166793,4.77542 3.410955,-2.12137 13.097589,0.24625 11.468232,-1.79231 6.806459,2.05205 2.938595,8.98245 7.457175,13.45788 1.169855,1.95163 4.534959,7.02948 1.90246,1.83198 -0.845476,-3.48122 3.93536,6.05725 5.123763,5.91894 3.170687,2.28938 11.593221,3.7824 9.564952,8.79584 -3.029982,5.61107 5.03846,9.47345 3.836405,15.3585 -0.952288,3.43573 -3.918532,13.28262 -0.157374,12.49529 1.642401,-3.22632 3.164655,-6.19444 5.67473,-8.4672 1.795172,-1.72301 7.646856,-7.28048 8.285136,-12.45543 4.094322,-6.24459 -7.481675,-3.22038 -6.158177,-8.27352 -3.284961,-2.5939 -7.867994,-5.81557 -10.147644,-2.77021 -3.663526,3.47925 -6.309783,-11.84815 -3.458024,-3.32816 -2.934521,0.27024 -0.842249,-5.10733 -3.92856,-1.48663 -6.098461,-4.10372 3.203337,-8.73297 5.528548,-4.62782 -1.315059,-4.42198 3.071892,-9.03799 6.443583,-9.07102 4.803669,-1.25933 -5.93852,-1.01136 -0.811715,-2.66588 3.730678,-1.09026 5.467985,-1.12677 2.462662,-3.59947 -1.148847,-2.72563 -3.717105,-0.005 -5.161015,-3.09555 -3.397303,-0.9534 -1.154801,8.75025 -4.134353,3.72769 -4.565253,0.73091 -6.106451,-5.1452 -1.918494,-5.11809 -4.067942,-0.10416 5.757175,-1.58663 1.101778,-2.03089 -2.691659,0.86801 -2.70211,-0.71403 -4.158165,-1.7042 z m 8.007509,18.55976 c 0.181001,0.59829 0.104907,0.34672 0,0 z m -1.902116,6.0572 0.01111,-0.005 z m -2.094998,-2.36763 -0.04008,-0.0804 z m -0.724932,-0.36074 c -0.31361,0.0709 0.30234,-0.0448 0,0 z m -4.196609,1.17468 -0.02249,0.0873 z m 5.679731,8.08807 -0.02355,0.20228 z m 3.937238,31.85798 c -0.03445,0.30595 0.385525,-0.17909 0,0 z m -22.752209,-52.62782 c -0.03059,0.38362 0.43434,-0.48284 0,0 z m -0.478842,-0.54339 c -0.51062,0.33511 0.62566,0.36994 0,0 z m -14.079617,-6.98645 -0.251301,-0.18558 z m -2.008539,-0.94522 0.01296,-0.017 z m 48.191322,-1.74205 0.162877,0.0344 z m 99.741198,0.0411 c -3.05308,0.50496 2.07949,0.40441 0,0 z m -99.541703,0.10731 c -0.20738,0.36927 0.543455,-0.16954 0,0 z m 44.8526174,0.008 c 0.10078,0.48924 0.610341,-0.21967 0,0 z m -45.1518874,0.0411 c -0.488103,0.15543 0.398066,0.19249 0,0 z m 11.911489,0.12329 c -2.527062,-0.29509 0.4386,0.86643 0,0 z m 20.870016,0.10617 c -0.620924,0.22519 -0.495089,0.17955 0,0 z m 0.20619,0.0582 c -0.287735,0.15546 0.312499,0.10886 0,0 z m -53.00644,0.0411 0.161819,0.074 z m 52.846816,0.0651 c -0.580945,-0.14574 0.07644,0.34647 0,0 z m -33.380097,0.0331 0.06972,0.0375 z m 48.47727545,0.0251 c -0.153537,0.78598 1.29611395,-0.0963 0,0 z m -15.43637345,0.024 c -0.165444,0.2379 0.437144,-0.0817 0,0 z m -32.754914,0.0411 c -0.501518,1.25818 2.164027,-0.24313 0,0 z m 31.444723,0.0502 0.165709,0.0643 z m 0.412354,0 c -0.149464,0.28669 0.322924,-0.11364 0,0 z m -0.532078,0.0731 c -0.889317,0.0246 0.448496,0.29274 0,0 z m -0.126365,0.13241 c -0.563774,0.21912 -0.291914,0.11347 0,0 z m 63.494657,-0.0913 c 0.0714,0.69035 1.0306,-0.48802 0,0 z m -93.329893,0.0411 -0.04038,0.12247 z m -19.91233,0.0251 c -1.860206,1.3465 2.727219,0.23524 0,0 z m 7.768087,0.0331 c -0.769514,-0.37583 -0.220398,0.43871 0,0 z m -1.689285,0.008 -0.07152,0.0337 z m 2.321083,0.0251 -0.149939,0.12365 z m -25.964488,0.0571 c -0.268208,0.11398 0.330358,-0.003 0,0 z m 18.509033,0.016 c -0.46945,-0.001 0.318558,0.23733 0,0 z m -0.445611,0.0251 0.233415,0.0589 z m -1.875499,0.008 -0.05792,0.0587 z m 63.9136494,0.0171 c -1.398032,0.79189 1.776757,0.12679 0,0 z m -53.7247304,0.0411 c -0.230267,0.40174 0.569409,-0.16687 0,0 z m 45.092064,0 c -0.63463,0.71989 -0.760307,0.10845 0,0 z m -45.637424,0.024 c -0.761709,0 -0.01482,0.53594 0,0 z m 40.210396,0.0491 -0.224525,0.19582 z m -49.421679,0.0913 -0.005,0.0847 z m -0.192855,0.0491 c -0.141552,0.36609 0.411374,-0.08 0,0 z m 49.188899,0.024 c -0.783246,0.0611 0.329565,0.43807 0,0 z m 0.312579,0.0171 c -0.798751,0.56769 0.664766,0.17115 0,0 z m -50.093404,0.0651 c -0.561631,0.13209 0.368115,0.15464 0,0 z m 11.339513,0.0662 c -0.05879,0.4415 0.506121,-0.0734 0,0 z m -12.569905,0.0661 c -0.187563,0.24688 0.500962,-0.0787 0,0 z m -2.540582,0.016 -0.03665,0.0469 z m 124.515242,0.016 0.15238,0.0571 z m -70.903594,0.0331 -0.308636,0.0824 z m -38.747224,0.0582 c -2.848848,0.33533 1.862191,0.99935 0,0 z m -15.18367,0.016 -0.05995,0.0484 z m 10.574708,0.008 c -0.554117,0.37453 0.609812,0.28243 0,0 z m 42.764287,0.0171 c -0.642038,0.12757 0.266779,0.16169 0,0 z m -52.507648,0.008 -0.05995,0.0484 z m -0.133006,0.0571 -0.05794,0.0422 z m 53.372227,0.008 -0.01006,0.0406 z m -38.268381,0.009 c -0.158644,0.64269 1.075716,-0.39445 0,0 z m 37.264128,0.016 -0.104114,0.11768 z m -51.962288,0.0571 -0.08644,0.0171 z m -0.798089,0.009 -0.05932,0.0408 z m -1.064102,0.016 -0.07586,0.0181 z m -0.285988,0.016 -0.104987,0.01 z m 2.500683,0.1233 0.04366,0.0776 z m 0.09311,0.0913 -0.04209,0.0537 z m 0.139674,0.14726 0.05749,0.0507 z m -5.240788,0.0902 c 1.541357,1.4116 -4.8455,0.0649 0,0 z m 44.160943,0.2637 c -4.053311,1.54293 -1.780672,2.50772 0.97626,0.64611 l -0.210185,-0.33251 z m -28.438581,0.13129 -0.07541,0.0283 z m -0.552026,0.0982 c 0.03794,0.54409 0.75266,-0.0806 0,0 z m -0.352478,0.0331 c -0.15711,0.43379 0.494691,0.0611 0,0 z m -0.246089,0.0662 c -0.54655,3.16635 3.899641,-0.20625 0,0 z m 0.977662,0.024 -0.08022,0.0149 z m 18.189786,0.51028 0.07435,0.18928 z m -0.113056,0.31165 c -0.221747,0.13938 0.314669,-0.0273 0,0 z m -15.649205,0.14042 -0.05305,0.0487 z m 47.7058044,0.0902 c 0.734113,-0.007 -0.03784,0.79543 0,0 z m -87.7565854,0.0822 c 0.696278,0.85362 2.469251,-0.45802 0,0 z m 40.223686,0.008 c -0.0026,0.40639 0.677387,-0.1898 0,0 z m -10.016013,0.0582 c 0.0862,1.03201 -1.195785,-0.21237 0,0 z m 54.363196,0.016 c 1.704473,0.61943 0.582004,2.56609 0,0 z m -44.726278,0.0331 0.05313,0.15161 z m 36.645612,0.016 c -0.243125,0.16881 0.324935,-0.007 0,0 z m 7.521999,0.1073 c 1.336331,0.19508 -0.863653,2.1218 0,0 z m -45.890127,0.13928 c -1.533843,-0.3545 -0.05673,1.06552 0,0 z m -12.091062,0.0251 c 0.171556,-2.91648 -4.350861,1.7021 0,0 z m 61.7455224,0.0331 c 3.562588,2.27478 -0.5815284,0.96093 0,0 z m -44.8526434,0.016 c -0.04628,0.41245 0.673523,-0.167 0,0 z m -1.522995,0.0571 0.137213,0.049 z m 4.110143,0.0913 c -0.02302,0.31922 0.403516,-0.21937 0,0 z m 30.127866,0.0731 -0.0079,0.0862 z m -36.392855,0.009 c -1.062752,-0.008 0.479266,0.8229 0,0 z m 30.925955,0.0491 -0.0082,0.0228 z m 0.0066,0.024 0.09197,0.10829 z m 0.01984,0.0662 c -0.353801,-0.4869 -0.06154,0.27928 0,0 z m 5.373819,-0.0742 -0.06506,0.049 z m -5.619882,0.0742 0.08723,0.0169 z m -24.541242,0.11529 c -0.28149,0.0215 0.228865,0.14834 0,0 z m 29.82857,0.024 c -0.309907,0.0559 0.302683,0.0376 0,0 z m 10.967085,0.0662 c 2.3952464,0.45368 -1.208776,1.59133 0,0 z m -40.789014,0.0331 c -0.48178,0.26838 0.664395,0.0777 0,0 z m 24.747405,0.0331 0.08668,0.0995 z m -47.37989,0.024 c 0.360865,0.35927 -0.912045,0.0911 0,0 z m 2.114947,0.39498 0.07083,0.0363 z m 14.897656,0 -0.123613,0.0508 z m -28.757827,0.1233 -0.120068,0.0504 z m 61.5061,0.008 0.0026,0.22123 z m 80.188003,0 0.2113,0.13278 z m -108.633251,0.008 c -0.421429,0.36434 0.441113,0.0359 0,0 z m -33.38674,0.0411 c 0.0026,0.32059 0.42172,-0.24132 0,0 z m 34.869861,0 c -0.285776,0.0509 0.267521,0.10178 0,0 z m -43.183288,0.0411 c -1.772523,-0.28262 0.774417,0.78566 0,0 z m 8.147163,0.0491 c -0.402828,0.30627 -0.357637,0.27191 0,0 z m 43.868314,0.0822 c 0.0127,0.37172 0.693526,-0.29782 0,0 z m -0.05321,0.0742 -0.05292,0.0489 z m 21.016357,0.0251 0.02408,0.0887 z m -21.003048,0.008 c -0.195739,0.21059 0.315912,-0.0311 0,0 z m 42.74433745,0.0411 c 0.213492,1.45563 -0.522446,0.47008 0,0 z m -7.34909305,0.016 0.193437,0.14982 z m -63.2751844,0.12328 c 3.452919,-0.25585 -2.510314,1.11294 0,0 z m 48.823113,0.10732 2.6e-5,0.13654 z m 3.618018,0.016 c 0.02037,1.00411 -0.989171,0.12787 0,0 z m 10.3485694,0.0913 c 1.098894,0.68014 -0.729853,0.67925 0,0 z m 53.7845816,0.016 c -1.10697,-0.0335 0.0802,0.65382 0,0 z m -71.276054,0.0251 0.08385,0.11223 z m -0.146315,0.13127 0.09978,0.016 z m 7.814628,0.024 c -0.03863,0.6292 -0.703871,0.50795 0,0 z m -74.787628,0.0171 -0.120015,0.11278 z m 67.019567,0.0822 c -2.029857,0.79113 0.311891,4.99146 0.153617,4.39152 4.576366,-0.37358 -0.932894,-2.87058 -0.153617,-4.39152 z m -63.494655,0.016 -0.01032,0.0489 z m -0.02662,0.0822 c -0.953373,0.26039 0.752686,0.22436 0,0 z m 62.231031,0 c -0.835474,0.0172 0.08776,0.67626 0,0 z m -54.709033,0.0491 c -0.01535,1.23805 0.794596,0.0773 0,0 z m 81.61792645,0.0251 -0.08755,0.17318 z m -19.21398945,0.016 -0.09914,0.11745 z m -62.822932,0.0171 c -1.002426,0.62217 1.106541,0.23881 0,0 z m -0.25273,0.0822 0.01323,0.0856 z m 14.611668,0.016 c 0.603303,0.88752 -1.243727,0.99345 0,0 z m -21.767852,0.0331 c -2.173553,0.37743 1.238355,0.76114 0,0 z m 0.0066,0.41896 c -0.177245,0.28612 0.370707,-0.11593 0,0 z m -0.08647,-0.40297 0.04299,0.0382 z m 36.007118,0 -0.170021,0.081 z m 52.80025045,0.0582 -0.23553205,0.53078 z m -26.18396045,0.0822 c -0.47326,0.45671 0.816001,0.31286 0,0 z m 21.2690874,0.008 c 0.167296,1.01379 -0.773192,-0.005 0,0 z m -21.7080314,0.008 c -0.174863,0.21489 0.345149,-0.0836 0,0 z m -54.496203,0.0662 c -0.335068,0.82451 1.131544,0.49742 0,0 z m -0.133032,0.12329 -0.0029,0.15679 z m 54.675775,0 -0.05286,0.0727 z m 7.847886,0 -0.06503,0.049 z m -61.705596,0.12329 c -0.0327,0.77409 0.977477,-0.28966 0,0 z m -0.133033,0.0902 c -0.424603,0.3612 0.489691,0.32639 0,0 z m 30.879416,0 0.04075,0.0951 z m -0.405686,0.0331 0.09427,0.013 z m -26.503233,0.0742 c 0.637804,-0.14565 1.789218,2.55736 0,0 z m 50.485807,0.032 c -0.377057,0.36106 0.651034,0.0476 0,0 z m -63.11556,0.0251 -0.132741,0.0949 z m 0.232781,0.016 -0.07136,0.0339 z m 31.823792,0.0171 c -0.732261,0.10125 0.276516,0.77083 0,0 z m -0.186214,0.016 -0.151633,0.14496 z m -6.73055,0.0171 0.213307,0.064 z m -15.955143,0.008 0.0313,0.085 z m 23.05812,0.008 -0.05448,0.16639 z m -23.364058,0.0491 c 0.07207,1.14406 1.495452,0.62005 0,0 z m 0.485511,0 c -0.334143,0.28046 0.478366,0.14964 0,0 z m 100.033857,0 c 1.51408,2.43023 -0.69427,0.68175 0,0 z m -84.524326,0.0331 -0.103108,0.0774 z m 38.434671,0.0742 -0.04657,0.0742 z m 7.681595,0.024 c 0.517155,0.94473 -0.367479,0.84048 0,0 z m -61.153595,0.0742 c -0.495724,0.34169 0.531574,0.58051 0,0 z m 53.28576,0.0171 c -0.424682,-0.0833 0.118719,0.34867 0,0 z m 24.5279604,0.0491 c -1.11715,1.32252 -2.50063,1.37007 0,0 z m 24.7740246,0.0331 c -1.35229,3.70455 -3.55335,1.92205 0,0 z m -48.929531,0.024 0.01773,0.14455 z m 6.624135,0.0582 -0.06914,0.24023 z m 34.936356,0.0651 c 0.40849,1.54477 -1.4383,0.35581 0,0 z m -107.722093,0.0411 -0.01111,0.1131 z m 12.297224,0 0.03654,0.10353 z m 52.966515,0.0171 c -4.105752,2.12404 2.579634,2.68286 0,0 z m 73.803324,0.016 c -0.12078,0.46405 0.68313,0.17094 0,0 z m -127.401664,0.008 -0.04657,0.0662 z m -11.312921,0.0171 -0.125227,0.19412 z m 0.146315,0.024 -0.01878,0.098 z m 11.944746,0.008 0.0058,0.10075 z m 14.545178,0 -0.144886,0.1091 z m 46.063059,0.0411 -0.07525,0.17085 z m 53.984077,0.009 c -0.78634,0.0957 0.54581,0.42918 0,0 z m -86.965131,0.032 c 1.690264,0.35528 1.371653,1.49078 0,0 z m -41.374271,0.009 c -1.839576,0.147 0.863891,0.56445 0,0 z m 73.863173,0 0.08157,0.0908 z m 54.097139,0.016 c -0.31221,0.11297 0.27781,0.0138 0,0 z m -113.661224,0.008 -0.09761,0.13158 z m -0.458893,0.008 -0.04305,0.0727 z m -13.18842,0.0171 -0.05321,0.0651 z m 27.886553,0.008 c -0.513053,0.201 -0.371792,0.14565 0,0 z m 44.71297,0 0.04374,0.0509 z m 1.217083,0 c -0.15621,0.43795 0.636217,-0.12404 0,0 z m 0.27268,0 0.02712,0.093 z m -29.695564,0.0251 -0.107447,0.0712 z m 59.983055,0.032 -0.27932,0.1644 z m -62.749776,0.0331 0.05308,0.0897 z m 32.196246,0.14041 -0.08461,0.0265 z m -74.042719,0.016 0.05882,0.0403 z m 67.418584,0.0331 -0.143113,0.18165 z m -39.837968,0.008 c 2.277824,2.49167 -0.718503,2.67722 0,0 z m 102.474693,0.0331 c -1.53242,2.60342 1.07473,5.60132 0.26963,1.48705 l -0.10856,-0.75204 z m -103.425738,0.0491 c 0.226748,0.76433 -0.58084,0.66964 0,0 z m -27.999644,0.016 c -0.152797,0.23535 0.351551,-0.0674 0,0 z m 14.059674,0.0331 c -0.46437,0.73927 1.277435,-0.59731 0,0 z m 13.068723,0 -0.0254,0.0982 z m -11.964696,0.0491 c -0.305144,-0.0923 0.113453,0.26072 0,0 z m -15.336607,0.0331 c -0.856721,0.005 -0.0056,0.63934 0,0 z m 15.409764,0.0491 c -0.06347,0.4507 0.761894,0.16431 0,0 z m 0.571976,0.0993 -0.128561,0.10253 z m 10.740946,0.0411 c 0.277204,-0.0408 -0.205343,0.18255 0,0 z m -11.406029,0.016 0.165206,0.18947 z m -16.048256,0.0251 c -0.843492,0.13499 0.05329,0.52366 0,0 z m 74.235635,0.024 -0.07136,0.0339 z m -0.27268,0.0251 0.09689,0.002 z m -0.03992,0.008 -0.166026,0.0584 z m -4.249817,0.0171 c -0.271701,0.2687 0.436033,0.009 0,0 z m -54.216856,0.0982 c -0.521256,0.42405 0.766127,0.68902 0,0 z m 21.402093,0.008 c -0.599996,0.46007 1.163161,0.0367 0,0 z m 36.765309,0.0171 -0.02302,0.0861 z m -44.879233,0.008 c 1.827741,1.61983 -0.756391,0.16679 0,0 z m 116.294926,0.0902 0.26001,0.0854 z m -52.8401696,0.0902 c -0.359833,0.52243 -0.237305,0.34452 0,0 z m -75.6588744,0.008 0.07787,0.10365 z m 0.365786,0.009 0.0034,0.2013 z m 3.957214,0.0411 c 0.442833,0.43958 0.275855,0.27383 0,0 z m -4.023704,0.0411 -0.0254,0.0937 z m 133.812968,0.11416 c -0.52753,0.3275 -0.33142,0.20575 0,0 z m -133.573546,0.0662 -0.07982,0.0251 z m 98.903206,0.0331 0.1044,0.12362 z m -98.983031,0.016 -0.02514,0.0979 z m 133.886151,0.0331 c -0.5348,0.0619 0.58161,0.0541 0,0 z m -113.089266,0.0251 -0.125941,0.0962 z m -20.710419,0.016 -0.113215,0.1139 z m 132.536035,0.0411 c -0.46448,0.0757 0.21132,0.36296 0,0 z m -0.59857,0.0331 c -0.37523,0.24543 0.43416,0.10198 0,0 z m 0.3791,0 -0.18839,0.16011 z m -57.8348746,0.024 c -0.870691,1.66231 -1.319451,1.32272 0,0 z m -70.1653314,0.009 0.12626,0.10688 z m 20.73701,0.024 c 0.968719,-0.19199 -0.313134,1.07594 0,0 z m -12.796043,0.0171 c 0.992478,1.03313 -0.178859,0.57992 0,0 z m -12.283917,0.032 -0.01217,0.13359 z m 30.673226,0.0582 c -0.869077,1.68408 -1.057805,4.1115 0.963453,1.70615 -1.144931,-0.01 -1.127072,-0.94581 -0.963453,-1.70615 z m 66.62052,0 c 0.39021,0.56606 -0.73972,0.74705 0,0 z m -73.863172,0.11529 c -0.369887,1.55522 -0.845026,0.16657 0,0 z m 44.054528,0.0902 -0.03146,0.21488 z m -46.907688,0.0822 0.154278,0.16317 z m -20.584081,0.10616 c 1.29876,1.92942 2.919465,0.50471 0,0 z m 0.751549,0.0171 -0.0916,0.0924 z m 30.127866,0.016 -0.05935,0.0408 z m 90.124228,0.008 0.0888,0.0473 z m -67.066082,0.009 c -0.175868,0.22138 0.311336,-0.0407 0,0 z m 66.992922,0 c -0.67104,0.21339 -0.0251,0.61118 0,0 z m -116.567584,0.016 -0.0531,0.17786 z m 89.678644,0.0251 c 0.52625,0.61152 -0.83058,0.13963 0,0 z m -92.864359,0.13128 0.01058,0.0756 z m 0.0066,0.0742 0.0029,0.0985 z m 15.695772,0 c 0.67519,0.7392 -0.997691,0.25565 0,0 z m -15.589356,0.0411 0.04654,0.0717 z m 12.962308,0.13129 -0.271833,0.52961 z m 12.968949,0.016 c 0.414893,0.94055 1.973104,-0.0362 0,0 z m 40.662648,0.0582 c 1.6041964,0.65511 1.9923134,1.23473 0,0 z m -66.427641,0.016 0.14433,0.11322 z m 2.773363,0.016 0.0071,0.19291 z m 27.241447,0.009 -0.03712,0.0806 z m 58.779279,0.008 c 0.38838,1.72362 -0.70125,0.61742 0,0 z m -58.972134,0.0411 -0.101626,0.0819 z m 89.126614,0.0651 -0.0879,0.13276 z m -47.3399886,0.0502 -0.393727,0.88086 z m 31.5178586,0.0411 c 0.33824,0.57429 -1.00764,0.33389 0,0 z m -102.727368,0.13927 0.117025,0.10683 z m 15.130436,0.0491 c 2.443375,-0.22298 3.892021,4.67972 1.396365,1.94274 -3.292025,3.84036 2.18493,-2.52886 -2.508223,-0.8486 -1.375146,-0.25614 1.004543,-1.03937 1.111858,-1.09414 z m -15.090537,0.0411 0.0544,0.057 z m 118.216969,0.0582 -0.0786,0.0374 z m -115.882576,0.0731 -0.04337,0.20983 z m -2.128229,0.0331 0.01508,0.0714 z m 0.21283,0.1153 0.0066,0.18291 z m 8.340038,0.10731 0.47707,0.30182 z m -0.266039,0.016 -0.03053,0.0649 z m 59.0452904,0.0251 c -0.450559,0.98098 -1.9039424,1.05304 0,0 z m -60.2557324,0.0571 -0.591635,0.2538 z m 17.870567,0.0411 -0.03993,0.0822 z m -5.127731,0.12329 c 0.410078,0.36245 -0.419021,0.27249 0,0 z m 9.530503,0.016 -0.02514,0.098 z m -3.092582,0.009 -0.251354,0.17495 z m -13.973228,0.0651 0.0426,0.0689 z m 104.988649,0.10731 v 0.008 z m -0.0931,0.0982 -0.16844,0.15711 z m -43.0103796,0.008 c -1.092544,0.86213 3.15497105,5.08123 -0.263287,5.05637 -0.786712,-1.35998 -2.737591,-4.71141 0.263287,-5.05637 z m -45.7371454,0.0171 0.01693,0.10091 z m -3.272182,0.024 c -0.06297,0.99269 1.527493,0.19725 0,0 z m 1.443223,0 c -0.654791,0.88301 0.430583,0.61741 0,0 z m 24.813921,0 0.0626,0.0612 z m 27.1882434,0.0913 c 0.69577,3.24334 -3.593124,0.90079 0,0 z m 6.08544,0.024 c 3.7929596,-0.13172 -3.23622,0.97756 0,0 z m -75.1534144,0.0662 c 0.156765,0.82797 0.224208,1.18423 0,0 z m -4.668811,0.024 0.04336,0.064 z m 46.887738,0.23059 0.09139,0.0187 z m 64.585377,0.016 c -0.44217,0.4399 -0.2748,0.27337 0,0 z m -64.518887,0.12329 0.05741,0.054 z m 60.987337,0.22261 c -3.35857,3.5511 3.9153,1.29444 0,0 z m 2.89308,0 c -1.53257,0.48602 -0.20262,0.46168 0,0 z m -7.03649,0.0982 c 0.78359,0.0644 -0.48783,0.63274 0,0 z m 3.81752,0.0411 0.05,0.0515 z m -53.897639,0.0171 0.02514,0.0993 z m -0.0798,0.024 0.01667,0.2015 z m -48.84973,0.12329 c 0.08064,0.45559 -0.516123,-0.13744 0,0 z m -4.622244,0.0411 0.05437,0.057 z m 53.638238,0.0902 0.166132,0.15623 z m -45.670655,0.0502 0.151527,0.0617 z m 101.60342,0.0411 c -0.82881,0.26425 0.17632,0.471 0,0 z m -94.480466,0.008 c -1.081405,1.50076 -2.388262,0.0436 0,0 z m 3.225588,0.0331 -0.04392,0.076 z m 35.36868,0.13927 0.120412,0.11485 z m -48.610309,0.1153 -0.02593,0.0895 z m 104.795797,0.0411 -0.043,0.0726 z m -104.822387,0.0571 0.0082,0.0898 z m 0.07316,0.16439 0.221747,0.17606 z m 49.242107,0.0331 0.13679,0.048 z m -45.81697,0.016 0.01614,0.11711 z m 45.883486,0.0742 0.06416,0.0458 z m -40.729164,0.0742 c -1.370542,1.30349 -2.358814,0.0823 0,0 z m -14.305757,0.008 -0.01878,0.098 z m 51.982238,0.0331 c -0.960623,0.4789 0.534617,1.2176 0,0 z m 3.099223,0.008 0.141844,0.0328 z m -2.680229,0.0582 -0.05437,0.0641 z m 2.972859,0.0491 0.07739,0.0254 z m 25.8847144,0.016 c -0.41592,0.81178 -1.198,-0.33261 0,0 z m -81.3319624,0.56737 c 0.742844,0.24232 -0.159491,0.74545 0,0 z m 108.021382,0.0742 c -0.11747,2.16011 -6.32616,4.926 -1.33183,3.47681 1.64092,-0.26611 1.63817,-2.20782 1.33183,-3.47681 z m -90.017809,0.0331 -0.05321,0.0651 z m 33.952048,0.11415 c -1.335405,0.98432 1.076907,1.71802 0,0 z m -34.690288,0.0502 c -1.418987,0.12132 0.01905,0.44855 0,0 z m -21.249138,0.13129 -0.03712,0.0806 z m 62.510353,0.0571 0.0061,0.10783 z m 0.545359,0.29566 -0.01005,0.0692 z m -9.330981,0.0913 0.07948,0.079 z m 9.124818,0.016 -0.150125,0.10242 z m -42.777596,0.0251 -0.180736,0.13345 z m 33.300274,0.008 c -0.984806,-0.014 0.476355,0.70066 0,0 z m 7.103004,0.0822 0.0026,0.15305 z m -40.010874,0.0742 -0.04244,0.0704 z m 42.69777,0.17238 c -0.337185,0.29769 0.588566,0.0577 0,0 z m -1.090718,0.0742 0.05935,0.0408 z m -9.384189,0.0411 -0.105648,0.12312 z m 9.251183,0.0491 c 0.120968,0.73623 0.96901,0.3504 0,0 z m 8.5861004,0.016 c 0.01482,0.73547 -1.083231,-0.14533 0,0 z m -8.0806404,0.008 0.04257,0.0647 z m -1.609487,0.0822 -0.01773,0.10546 z m 2.254594,0.12329 0.01852,0.18885 z m -2.307802,0.0662 0.01164,0.19108 z m 50.179869,0.0822 -0.0469,0.22555 z m -52.294815,0.0251 c -2.428346,-0.95857 -0.07191,1.92376 0,0 z m 12.5566224,0 c 0.727895,0.27164 -0.245375,0.96106 0,0 z m -51.1841494,0.016 -0.07535,0.16692 z m 42.538174,0.13129 0.02434,0.0592 z m 42.531508,0 h 0.007 z m -44.274001,0.0331 0.09366,0.14256 z m -19.812582,0.008 0.277945,0.0908 z m -35.980529,0.0171 -0.11131,0.18118 z m 58.406851,0.0411 c -0.212514,0.16761 0.307975,-0.0457 0,0 z m -1.05082,0.0571 -0.0399,0.0822 z m -57.508986,0.15639 -0.230108,0.20658 z m 89.665337,0.0982 c 1.03653,-0.0628 -0.33938,0.75125 0,0 z m -31.64425,0.0171 -0.06424,0.10254 z m -0.133006,0.024 -0.03503,0.0701 z m -48.304344,0.0822 c 0.161158,0.61084 0.09999,0.379 0,0 z m 49.182232,0.0411 -0.114432,0.0576 z m -1.190466,0.0662 -0.05432,0.0559 z m -59.105166,0.10617 c 0.406718,0.28254 -0.272573,0.21152 0,0 z m 60.668086,0.0662 c -0.47453,0.0336 0.0853,0.51213 0,0 z m -2.234645,0.0331 0.02839,0.0576 z m 46.967539,0.024 v 0.009 z m -50.632097,0.23859 0.08755,0.0152 z m 5.48685,0.0331 -0.04559,0.16058 z m -43.72864,0.0662 -0.0026,0.19607 z m 42.232209,0.008 c 0.704321,0.83845 1.356757,-0.10011 0,0 z m 4.6222714,0 c -1.8431144,0.0577 -0.292523,0.89255 0,0 z m -63.5146054,0.0491 0.01878,0.10603 z m 16.527119,0.20548 -0.05998,0.0484 z m 73.849863,0.0662 0.006,0.13126 z m 13.16847,0.0571 -0.003,0.0789 z m -91.99975,0.0571 0.196956,0.0785 z m 4.741969,0.0171 -0.035,0.0701 z m -0.146315,0.0571 -0.08305,0.0109 z m 87.763216,0.008 -0.0576,0.16147 z m 2.31447,0.0822 -0.0585,0.16167 z m -106.099318,0.009 0.09208,0.0912 z m 15.748953,0 -0.07316,0.0411 z m -2.773363,0.0411 -0.06972,0.15027 z m 92.704738,0.032 c -2.3023,0.77448 1.08304,0.86484 0,0 z m -2.00853,0.0411 0.0267,0.10227 z m -106.019525,0.1153 0.07747,0.0264 z m 106.704555,0.0822 c -1.33554,1.21527 1.49683,1.45644 0,0 z m -51.084376,0.0171 c -0.153035,0.24981 0.312923,-0.0504 0,0 z m 50.638766,0.032 h 0.007 z m -4.80182,0.15639 c 0.37481,0.41681 -0.50702,0.29457 0,0 z m -100.878508,0.0251 0.05916,0.049 z m 105.567268,0.0742 -0.0283,0.0871 z m -4.84174,0.0651 -0.0935,0.0729 z m 0.46556,0.0171 c 0.51824,0.37336 -0.28845,0.19422 0,0 z m 4.20328,0.0411 v 0.12993 z m -105.401009,0.0571 0.04342,0.0639 z m 43.136714,0.0662 0.148775,0.10891 z m 62.137925,0.0411 -0.0175,0.10105 z m 0.53205,0.14727 0.0316,0.13743 z m -16.40739,0.20548 0.003,0.10497 z m -75.160059,0.0742 -0.01297,0.16534 z m -12.649729,0.10731 0.05987,0.0491 z m 100.007288,0.14664 c 0.53372,0.2073 -0.40761,0.40102 0,0 z m -36.991445,0.1484 -0.09311,0.008 z m -50.312875,0.17238 0.04442,0.0763 z m 91.93324,0.0331 -0.0251,0.20369 z m -0.21948,0.20548 0.009,0.10224 z m -92.405434,0.016 -0.08305,0.0109 z m -0.957712,0.21348 -0.01244,0.12229 z m 1.74916,0.13242 -0.136975,0.0846 z m -7.069746,0.0822 0.135043,0.057 z m -5.220838,0.008 0.172826,0.26193 z m 9.297723,0 -0.06347,0.0248 z m -1.31019,0.1153 -0.101203,0.12832 z m -7.495381,0.0822 c -0.262414,0.3513 0.37166,0.15223 0,0 z m 42.112512,0.008 -0.06697,0.12364 z m -44.613195,0.024 0.0066,0.1153 z m 42.757646,0.1564 0.01614,0.17062 z m 1.702593,0.0582 c -0.264424,0.52592 -0.167375,0.33289 0,0 z m -1.01092,0.0902 c -0.53086,0.0383 0.04636,0.5619 0,0 z m 62.104642,0.024 -0.1641,0.16519 z m -96.236262,0.0662 -0.156104,0.14308 z m -8.007509,0.008 v 0.1383 z m 41.700159,0.0902 0.02662,0.0993 z m 0.698341,0.0251 c -0.420105,0.31754 0.469821,0.14662 0,0 z m -27.627183,0.0742 0.0332,0.0819 z m 89.153234,0.0651 0.0328,0.0713 z m -96.196363,0.0331 -0.111627,0.23019 z m 33.705959,0 -0.07316,0.0411 z m -33.83235,0.33676 c 0.07678,0.63864 0.0517,0.42995 0,0 z m -0.877888,0.0913 0.113586,0.20402 z m 9.244542,0.0571 c 0.360918,0.50907 0.218228,0.30779 0,0 z m 87.68342,0.0251 c -0.33187,0.45021 -0.24059,0.32635 0,0 z m -87.995999,0.0731 c -0.754671,0.11415 0.495829,0.0929 0,0 z m -13.913379,0.3459 -0.01984,0.10617 z m 14.644952,0.26256 0.08919,0.0998 z m -13.740447,0.0662 0.09313,0.016 z m 13.873453,0.0571 0.116655,0.1042 z m 0.113083,0.1153 -0.02514,0.20183 z m -15.316676,-0.0902 -0.01323,0.0898 z m 99.415333,0.0331 c -1.51722,1.37933 0.71811,1.56757 0,0 z m -84.969903,0.008 c -0.451591,0.60211 0.714533,0.38406 0,0 z m -13.833555,0.0571 0.05985,0.0582 z m -0.625157,0.008 0.01217,0.26165 z m 14.757982,0.009 0.09221,0.008 z m -14.00646,0.25457 0.03365,0.088 z m -0.685032,0.024 0.136339,0.0818 z m 100.572545,0.0171 -0.0513,0.0716 z m -2.63369,0.0331 h 0.007 z m 2.42752,0.016 0.009,0.0735 z m -85.761349,0.0662 0.03506,0.24944 z m 47.067338,0.15526 c -0.143219,0.98969 -0.09959,0.6883 0,0 z m -46.349047,0.16439 0.116311,0.10948 z m 0.29927,0 0.0752,0.15836 z m 0.07982,0.16438 0.104881,0.23497 z m -3.039401,0.0913 c -1.06897,1.43076 6.08748,2.07484 1.010893,0.20901 -0.336947,-0.0697 -0.67392,-0.13934 -1.010893,-0.20901 z m 3.371929,0.18836 0.06652,0.0331 z m -2.247953,0.0171 0.125492,0.0896 z m 72.479833,0 0.0511,0.33023 z m -24.860495,0.024 c -0.421508,1.18667 -0.487442,0.0467 0,0 z m -45.165195,0.008 -0.08927,0.18145 z m 70.10549,0.0171 0.065,0.0529 z m 0.23942,0.024 0.018,0.10745 z m -72.32021,0.0662 c -0.299482,0.0157 0.315675,0.0798 0,0 z m 72.16724,0.0411 0.0343,0.14102 z m -72.087415,0.0251 0.09311,0.008 z m 2.201386,0 0.174863,0.0387 z m -2.075021,0.0491 0.06652,0.0491 z m 0.02659,0.1153 0.09977,0.008 z m 2.533941,0.0731 0.04233,0.0551 z m -4.648862,0.009 c -0.457782,0.30261 0.51353,0.23326 0,0 z m 4.509188,0.0411 0.06636,0.0382 z m 0.20619,0 0.0798,0.024 z m 68.096973,0 -0.003,0.11919 z m -72.167244,0.0822 -0.06652,0.0571 z m 3.544861,0.22147 c -0.556683,-0.12928 0,0.50649 0,0 z m 76.915853,0.0822 v 0.008 z m 1.20377,0.0331 -0.0665,0.0491 z m -1.50971,0.12329 0.0665,0.0411 z m -82.429317,0.13128 -0.09155,0.11196 z m 84.025497,0.23859 c -2.02594,0.21163 0.42688,1.66791 0,0 z m -7.54859,0.024 0.0372,0.0806 z m 0.21281,0.0662 0.0268,0.0779 z m -70.723998,0.008 c -1.41359,2.80795 3.749384,-0.47055 0,0 z m 24.002524,0.0411 -0.01984,0.1073 z m -27.593925,0.27169 -0.08901,0.0157 z m 3.351979,0.21348 0.137028,0.0608 z m 71.05655,0.0251 0.003,0.0717 z m -78.824637,0.0571 -0.05321,0.0571 z m 90.463447,0.0982 c -1.31649,4.12231 2.73936,3.22658 0,0 z m -84.650683,0.0411 c -0.115015,0.85763 1.303258,-0.23289 0,0 z m 4.575704,0 c 0.509852,0.36786 0.337714,0.24365 0,0 z m 1.749134,0.13242 -0.05985,0.0491 z m -2.447449,0.0411 0.08644,0.016 z m 1.456505,0.016 -0.08271,0.0309 z m -9.603661,0.0411 -0.02828,0.0964 z m 9.816492,0.16439 0.09006,0.0118 z m 1.270291,0.0411 0.05985,0.0571 z m -11.060192,0.1153 -0.03104,0.0903 z m 10.647839,0.0331 0.05998,0.0484 z m 16.048249,0.11416 -0.04479,0.10761 z m -15.615947,0.009 0.03474,0.0785 z m 44.1343264,0.0902 0.04657,0.0742 z m -27.5673344,0.0982 -0.02117,0.0958 z m -0.618517,0.0662 0.02715,0.0793 z m 51.875823,0.0982 0.0185,0.0773 z m -78.232715,0.0331 -0.148802,0.0777 z m 10.541423,0.0251 0.103241,0.0774 z m -0.02659,0.0571 c -0.31377,0.0193 0.204576,0.31442 0,0 z m 66.500792,0.0251 -0.0799,0.16431 z m -49.980341,0.008 -0.03826,0.12005 z m 8.034099,0.13927 -0.180631,0.27669 z m 42.019372,0.008 v 0.009 z m -78.219399,0.1153 -0.154014,0.19277 z m 11.692017,0.0491 0.07943,0.20648 z m 16.074866,0.18151 0.05615,0.18807 z m 72.147266,0.008 -0.0249,0.0887 z m -10.1424,0.12329 -0.0206,0.15428 z m -62.330753,0.016 0.05019,0.0778 z m -15.635923,0.0742 0.133906,0.19246 z m 67.684646,0.35389 v 0.008 z m 11.24641,0.0651 c -0.33309,0.23869 0.32273,0.31521 0,0 z m -78.851231,0.0251 0.02868,0.15328 z m 31.743994,0.016 c 1.478386,0.70471 -0.573087,1.02629 0,0 z m 35.907367,0.0662 h 0.007 z m -2.07502,0.0982 v 0.009 z m 22.06718,0.0171 -0.0836,0.17417 z m -9.78991,0.0491 0.0608,0.15939 z m -12.27063,0.008 c -0.16745,0.86872 -0.25847,1.3408 0,0 z m 11.61886,0.008 -0.013,0.0653 z m -77.308256,0.12329 0.04929,0.0713 z m 67.897446,0.0582 0.0146,0.10487 z m -67.205773,0.008 0.07953,0.0295 z m 77.740563,0.008 0.12419,0.19934 z m -58.932259,0.16439 -0.182722,0.166 z m 48.224539,0.0251 v 0.008 z m 10.3419,0.0651 -0.0617,0.17056 z m -81.804132,0.0171 0.0481,0.0558 z m 81.864012,0.008 v 0.008 z m -10.2089,0.008 0.0433,0.10498 z m 10.62789,0.008 c -0.15615,0.59941 0.83029,0.12436 0,0 z m 0.44559,0 c 0.13464,1.61483 1.18541,-0.16202 0,0 z m -89.638715,0.0502 c 0.236511,0.34004 -0.362823,0.004 0,0 z m 88.907135,0 -0.0274,0.092 z m -81.611276,0.0491 0.132186,0.17227 z m 80.467356,0.0331 0.12187,0.18789 z m -80.141469,0.008 0.07292,0.14499 z m 45.0454984,0.008 c 0.428969,0.61298 -0.630476,0.11165 0,0 z m -42.1723614,0.0331 -0.01085,0.1024 z m 48.4041194,0 0.08644,0.016 z m 21.3754726,0.0491 0.0332,0.0709 z m -80.055003,0.016 c 1.144058,0.25889 -0.366104,0.94026 0,0 z m 78.398973,0.009 0.0364,0.0863 z m 9.15141,0.0731 0.0513,0.13564 z m -9.23123,0.009 v 0.008 z m 10.09584,0.008 0.17123,0.12898 z m -58.71943,0.008 -0.05972,0.0567 z m 48.52384,0.0331 0.0241,0.0983 z m -27.0751796,0.024 0.0612,0.18524 z m 27.2680296,0 0.007,0.0978 z m -48.69674,0.0993 -0.02487,0.0968 z m 59.71704,0.0411 c -0.0721,0.91435 0.76689,0.43935 0,0 z m -2.05508,0.0651 c -1.18176,1.35213 -0.39531,2.05054 0,0 z m -49.109092,0.0171 c 0.351631,0.46923 -0.109697,-0.50822 0,0 z m -27.527436,0.016 -0.120438,0.10385 z m 19.094292,0.0171 -0.03675,0.0714 z m 48.490576,0.0411 v 0.008 z m 10.98704,0.008 -0.23948,0.70966 z m -59.64388,0.016 -0.0399,0.0822 z m -20.397841,0.0411 c -0.470773,-0.0849 0.162666,0.27551 0,0 z m 69.134481,0.0662 v 0.008 z m 10.57468,0.008 c -0.92421,0.85124 0.49107,1.22612 0,0 z m -10.68109,0.0491 0.045,0.0743 z m -2.45412,0.0171 0.0492,0.14739 z m -65.336918,0.008 c -0.808408,0.17624 0.385974,0.77204 0,0 z m 70.258458,0.19749 0.0233,0.19651 z m 9.21129,0.008 -0.0143,0.23557 z m -0.61852,0.1564 c -0.71824,0.48525 0.72644,0.20176 0,0 z m -79.629341,0.016 0.08456,0.0277 z m 68.589101,0.0251 -0.0246,0.0862 z m -7.7414696,0.13128 c -1.1098,2.23165 2.1672196,2.4081 0,0 z m 0.7249296,1.1587 0.0233,0.0246 z m 18.60214,-1.1587 c -3.33865,1.68689 1.77884,3.17701 0,0 z m -10.82075,0.008 v 0.008 z m 16.23447,0.10731 -0.0309,0.0806 z m -16.22118,0.008 -0.0376,0.0888 z m -77.587581,0.12329 h 0.01323 z m 87.623571,0.024 -0.0188,0.10613 z m -18.6819696,0.0993 0.0531,0.0487 z m -34.4308854,0.008 c 1.185386,0.18017 0.231457,2.89058 0,0 z m 42.331975,0.008 h 0.007 z m -42.438391,0.15639 -0.0093,0.0596 z m -32.981027,0.17238 -0.02223,0.096 z m -0.09313,0.0742 v 0.008 z m 73.470798,0.0491 -0.006,0.1143 z m 2.04843,0.0331 0.0169,0.17115 z m -44.187561,0.0331 c -0.05487,0.63399 -0.03508,0.40548 0,0 z m 52.168451,0.024 -0.0233,0.0938 z m 7.46879,0.17352 0.003,0.11987 z m -92.092884,0.0411 -0.01852,0.10698 z m 29.40296,0 c -0.368353,-0.0406 0.213704,0.17664 0,0 z m 45.284924,0.22946 0.0629,0.19128 z m 2.89306,0.0171 h 0.007 z m 6.91679,0.0902 c -3.86527,0.58871 -3.10073,7.96582 0.0892,4.42861 0.48025,-1.38233 0.91448,-3.15849 -0.0892,-4.42861 z m 2.26123,0.14726 c -0.39843,0.12681 0.34658,0.24711 0,0 z m -9.46398,0.13242 -0.0645,0.0841 z m 9.03171,0.19636 c -0.25869,0.24443 0.44048,0.0215 0,0 z m -11.05355,0.20548 h 0.007 z m 0.12636,0.0331 c 0.14237,2.18354 5.95209,8.28136 3.5515,2.84367 -1.46103,-0.61254 -1.88542,-2.56971 -3.5515,-2.84367 z m 2.03512,0.0993 0.0376,0.0744 z m 8.51297,0.0571 -0.11723,0.15321 z m -74.554848,0.20548 c 0.328137,0.37913 -0.503846,0.18889 0,0 z m 38.7937914,0.16439 c 1.153054,1.69016 -0.69096,0.7106 0,0 z m 38.5543666,0.0491 0.0238,0.26374 z m -50.246384,0.41096 c -0.547423,0.39644 0.37084,0.29342 0,0 z m 49.681084,0.0491 0.10297,0.13141 z m -12.59653,0.39499 0.17839,0.24169 z m 13.93331,0.1564 c -0.53687,0.22102 0.32723,0.46552 0,0 z m -41.327738,0.12329 c 0.0327,0.77028 -0.900879,0.70257 0,0 z m -34.836576,0.10616 -0.01905,0.16641 z m 62.816264,0.009 0.0599,0.0639 z m 13.10863,0 c -0.66252,2.43458 0.57401,0.85712 0,0 z m -11.21315,0.032 c -0.43249,0.11009 0.34091,0.34236 0,0 z m -1.91543,0.0251 -0.007,0.008 z m -27.307963,0.0742 -0.280749,0.19419 z m 0.18624,0.0822 c -0.501862,0.34344 -0.259318,0.17747 0,0 z m 39.046493,0.0411 c -3.83828,-0.92466 -1.98784,6.33309 -1.12741,1.75398 -2.26185,-1.78606 1.19639,-0.37173 1.12741,-1.75398 z m -9.75661,0.0651 c -0.2503,0.13544 0.338,0.0169 0,0 z m -2.10828,0.0582 c -0.17791,0.6128 0.72562,0.24156 0,0 z m 2.75338,0.016 c -0.20693,0.20005 0.31457,-0.0174 0,0 z m -0.62515,0.0171 0.0437,0.2059 z m 0.0731,0.17238 c -0.0459,0.47031 0.57029,-0.15276 0,0 z m 0.8912,-0.0742 c -0.45281,0.0389 0.36256,0.36968 0,0 z m -0.22611,0.008 0.004,0.0854 z m -0.57198,0.0411 0.1996,0.11709 z m 0.59857,0.0993 0.0733,0.0472 z m -0.31925,0.0571 0.066,0.0402 z m 0.20619,0.008 0.007,0.008 z m -65.503188,0.0822 -0.09493,0.14875 z m -0.126365,0.0171 -0.02249,0.22116 z m 35.628051,0.0822 c 1.5793774,1.80662 -2.207498,1.81772 0,0 z m -11.34618,0.024 c -0.342556,0.0805 0.24548,0.30376 0,0 z m -24.082349,0.0491 c -0.683736,-0.0823 0.236035,0.42969 0,0 z m -0.285988,0.0582 0.02302,0.0659 z m 66.028599,0 0.037,0.0612 z m -83.453554,0.0571 c -0.165497,0.83431 0.63836,0.3722 0,0 z m 17.910466,0.008 -0.112395,0.11666 z m -0.532051,0.0502 -0.141076,0.12908 z m 77.235079,0 c -0.77256,0.11477 0.50268,0.27904 0,0 z m -77.434601,0.0651 -0.07871,0.15409 z m -16.879597,0.008 0.08573,0.10401 z m 92.797848,0.0502 -0.003,0.12601 z m -93.103785,0.008 -0.01905,0.0818 z m 93.236785,0.024 c -0.33171,0.25781 0.3963,0.28751 0,0 z m 2.1349,0.0251 c -1.53837,5.69491 8.08363,3.97062 7.27078,4.64738 -1.75737,-3.1293 -5.54533,-4.27231 -7.27078,-4.64738 z m -4.55578,0.0251 -0.0342,0.0579 z m -90.283855,0.0411 c -0.347927,0.0106 0.175763,0.30884 0,0 z m 16.53376,0.0411 c -0.688631,0.45694 0.365178,0.51154 0,0 z m 0.246062,0 -0.09618,0.13041 z m 75.798553,0.024 0.0246,0.0858 z m 3.50493,0.0251 c 0.0625,0.50075 0.67329,0.0307 0,0 z m -95.697542,0.016 -0.06133,0.11589 z m 93.728942,0.0411 -0.13637,0.0848 z m 0.0198,0.0662 c -0.37171,0.25805 0.38767,0.24899 0,0 z m -13.62072,0.008 c -0.42154,0.4525 0.61015,0.42731 0,0 z m 10.26874,0.13927 c -0.33213,0.48067 0.7602,-0.0967 0,0 z m 1.95533,0.0913 c -0.36772,0.42756 0.64023,0.0188 0,0 z m -9.24455,0.0731 c -0.9389,0.3586 1.16494,1.10851 0,0 z m 12.60317,0.0582 c 0.62746,0.17213 0.48209,0.13226 0,0 z m -4.62227,0.024 c -0.54243,0.38948 0.73406,-0.001 0,0 z m 2.42752,0.0251 c -0.527,-0.10443 0.16153,0.45756 0,0 z m -2.10164,0.0491 0.30393,0.0586 z m 9.3576,0.0902 -0.32462,0.0975 z m -9.12482,0.0171 0.0106,0.16502 z m -36.1268426,0.0331 -0.03326,0.0822 z m 46.4222026,0.18836 c -0.22537,0.23951 0.45175,0.003 0,0 z m -18.06342,0.0822 c -0.4405,0.70783 0.7728,0.0324 0,0 z m 18.34939,0 c 1.00012,1.75195 0.98012,0.33394 0,0 z m -98.258082,0.0491 -0.06914,0.15692 z m 89.159872,0.0742 c -1.78786,0.26344 2.02095,0.69021 0,0 z m -1.22375,0.14042 c -0.79742,0.47042 1.02892,0.28586 0,0 z m -41.41417,0.14726 c 0.951945,3.00744 0.600948,4.42898 0,0 z m 42.11916,0.10731 -0.10398,0.12258 z m -2.20139,0.22946 0.0576,0.11655 z m 4.37618,0.0662 0.11909,0.10452 z m -50.213129,0.016 0.03839,0.10976 z m 58.240589,0 c -2.23957,0.51429 -0.97949,2.41143 0,0 z m -12.39033,0.14041 c -0.54533,0.85361 0.25088,0.60854 0,0 z m 9.74997,0.0651 -0.007,0.1153 z m -38.52775055,0.009 0.0095,0.0841 z m 28.61813055,0.0411 c -0.53044,0.20737 0.30956,0.65052 0,0 z m -35.3420396,0.13128 0.05958,0.2611 z m 48.9295296,0.0742 0.0167,0.19819 z m -13.90007,0.032 -0.003,0.19603 z m 10.70771,0.0582 3e-5,0.0856 z m -5.94577,0.0571 -0.10321,0.30765 z m 0.57862,0.0742 c -0.52461,0.51755 0.56767,0.50117 0,0 z m 8.59277,0 c -0.0537,1.06289 1.02312,0.49548 0,0 z m -2.91968,0.0331 0.0581,0.1185 z m -6.43128,0.0902 0.0243,0.0863 z m -39.7581446,0.0411 0.01191,0.31344 z m 34.5373046,0.008 0.009,0.3236 z m -6.11203,0.0902 c 1.75591,2.70015 5.35914,0.1243 0,0 z m 11.9248,0.12329 c -0.29139,0.53008 0.45413,0.27009 0,0 z m 9.51722,0.2306 c 0.44143,0.49841 0.34742,0.39227 0,0 z m -18.12994,0.13927 c -0.80274,-0.44227 -0.22709,0.58577 0,0 z m 17.81069,0.0502 0.0532,0.0651 z m -10.20889,0.0731 0.075,0.0286 z m -0.0466,0.009 c -0.55724,0.29217 0.1587,0.68687 0,0 z m 11.41934,0.21348 c 0.65434,0.56456 0.77629,0.66976 0,0 z m -0.81137,0.024 0.0703,0.17641 z m -12.78941,0.009 c -0.79592,-0.20384 0.10192,0.54244 0,0 z m -36.8717226,0.032 -0.06535,0.16435 z m 38.1952226,0.0742 0.0726,0.0882 z m 11.67207,0.0331 0.0271,0.13212 z m -0.21283,0.0411 0.0254,0.0971 z m 0.41235,0.016 c -0.31239,0.34327 0.54348,0.26793 0,0 z m -17.99693,0.0582 c -1.08336,-0.075 0.801,0.71926 0,0 z m 6.72391,0 -0.0861,0.142 z m -5.52011,0.016 c -1.01999,1.56563 1.01346,0.08 0,0 z m 4.1434,0 0.0688,0.0324 z m -1.4166,0.0171 c -0.0417,0.48938 0.56163,-0.27762 0,0 z m -0.72493,0.008 c -1.56303,-0.0436 -0.65286,0.77026 0,0 z m -2.73344,0.0331 c -0.81161,0.44135 0.64405,0.4013 0,0 z m 3.10589,0 c -0.45093,0.0277 0.15346,0.26662 0,0 z m -0.14631,0.016 -0.0659,0.0614 z m 0.37242,0.0251 -0.0432,0.0987 z m 15.5561,0.008 c -0.14859,0.67583 0.60979,0.66424 0,0 z m 0.28599,0.65754 c 0.23368,0.17003 -0.18153,-0.33811 0,0 z m -14.68485,-0.63357 c -2.61268,0.45438 -0.76026,1.54884 0,0 z m 7.00323,0 0.0841,0.0167 z m 5.96572,0.0251 -0.0132,0.1153 z m -6.01226,0.008 0.0984,0.0798 z m -10.12246,0.008 0.0127,0.10869 z m 13.48108,0 -0.0204,0.11312 z m -123.510998,0.19749 -0.04297,0.0726 z m 124.222618,0.0822 c -0.32644,0.0297 0.30713,0.22791 0,0 z m 3.13251,0.0171 0.0342,0.0579 z m -4.24318,0.10617 0.0415,0.14794 z m 4.0503,0.0251 c -0.0835,0.81646 1.11829,-0.13396 0,0 z m -16.94609,0.0411 c -1.08902,0.33594 1.38033,0.65439 0,0 z m -31.2585106,0.008 -0.05985,0.0571 z m 44.2873106,0 c -0.13332,0.39079 0.50221,-0.018 0,0 z m -49.5414066,0.10731 c 0.965809,2.79809 -0.2515394,3.31645 0,0 z m -73.2512984,0.0902 -0.04297,0.0726 z m 122.905765,0 0.18838,0.21825 z m 4.48926,0.25457 c 0.12856,0.6206 0.7811,0.083 0,0 z m -16.79313,0.12329 -0.0487,0.0743 z m 0.61852,0.0331 -0.1369,0.17577 z m 12.45018,0.0651 0.0965,0.003 z m 5.6997,0.0251 v 0.076 z m -9.98942,0.0251 c -0.90567,3.46903 -3.30544,5.51461 -3.3142,0.49715 -4.47529,1.56085 -13.0624,7.43245 -6.61506,12.23389 4.14531,-3.51078 7.64588,-0.0816 11.11444,2.01166 6.72084,-2.8868 1.29891,-9.70945 -0.87014,-13.89077 -0.10501,-0.28398 -0.21003,-0.56796 -0.31504,-0.85193 z m 3.6712,6.80494 0.0684,-0.0278 z m -7.91437,-6.59147 0.0285,0.0914 z m 1.78905,0.008 -0.0841,0.16169 z m -2.32777,0.0251 c -0.8609,-0.20024 0.26188,0.82205 0,0 z m -0.26602,0.29567 c -0.0899,-0.58155 -0.42515,0.31691 0,0 z m 9.61031,-0.22261 0.17788,0.14846 z m 0.44561,0.009 -0.0849,0.0228 z m -47.2269396,0.016 0.04038,0.26801 z m 39.6583996,0.0491 -0.11668,0.11711 z m 10.02265,0 0.14206,0.12023 z m 2.85983,0.0742 0.0798,0.0251 z m -50.0069376,0.18037 c -3.226885,1.16238 -2.404243,10.63752 -0.176001,4.0049 0.49993,-1.24544 0.892677,-2.75485 0.176001,-4.0049 z m 37.0512976,0.0171 -0.0706,0.0446 z m -39.1063966,0.0742 c -0.310409,-0.0564 0.207751,0.19935 0,0 z m -0.325887,0.0651 0.05247,0.0396 z m 0.611876,0.22261 0.01323,0.11416 z m 1.350115,0.27854 0.0026,0.10558 z M 33.720857,174.934 c -0.45096,0.40771 0.47641,0.29952 0,0 z m 13.16183,0.23744 -0.0266,0.0993 z m -133.400645,0.10731 -0.01376,0.051 z m -0.152955,0.0491 0.0066,0.0331 z m 0.525409,0 0.01429,0.0389 z m 115.004671,0 -0.0281,0.0976 z m -38.2683866,0.0331 -0.02514,0.0967 z m -76.8094414,0.0571 0.0063,0.0248 z m 132.728918,0.0251 c -0.28355,0.70572 0.65932,0.36059 0,0 z m -134.21204,0.10731 0.02662,0.024 z m 0.219472,0.032 0.05321,0.0411 z m -0.02659,0.009 -0.01323,0.024 z m -0.01323,0.0571 0.0066,0.008 z m 134.664268,0.016 0.0124,0.11071 z m -133.972594,0.0742 0.01323,0.0251 z m -0.259371,0.0171 0.0066,0.008 z m 0.372427,0.024 h 0.02011 z m 32.582009,0 c 1.091301,0.23336 -0.09827,0.99678 0,0 z m -32.515492,0.008 0.0066,0.0331 z m 133.660011,0.009 -0.038,0.0823 z m -133.374023,0.0571 0.04657,0.0251 z m -0.292629,0.0251 v 0.024 z m 133.819642,0.008 0.0204,0.20448 z m -57.82824,0.024 c -0.619019,0.11332 -0.427434,0.0782 0,0 z m 44.54004,0.0822 0.0576,0.0559 z m -124.062995,0.0331 v 0.0171 z m 3.65125,0.0411 0.01984,0.0251 z m 0.305964,0.0251 0.02659,0.0331 z m 132.981621,0.0331 c -0.0442,0.54632 0.53123,0.12907 0,0 z m -130.826678,0.016 h 0.02662 z m -0.984303,0.016 -0.01693,0.096 z m -1.330166,0.0171 v 0.096 z m 0.279347,0.016 h 0.01323 z m -0.01984,0.0411 0.0066,0.0171 z m 133.22104,0.0251 0.13372,0.0666 z m -132.981619,0.0651 0.02659,0.009 z m -0.405712,0.0411 0.0066,0.0251 z m 121.282981,0 -0.12014,0.15237 z m -124.215939,0.009 0.0093,0.023 z m 0.21283,0.008 0.02659,0.024 z m 76.736284,0.0411 c -0.565785,1.08361 -0.737526,0.3167 0,0 z m -73.297865,0.0331 0.06411,0.0259 z m 132.74222,0.016 0.0825,0.10433 z m -66.607208,0.008 0.03522,0.0881 z m -66.347843,0.008 0.01323,0.0171 z m 0.03326,0.0411 0.02662,0.0171 z m -0.452225,0.009 0.01984,0.008 z m 83.0744304,0.008 -0.06464,0.18991 z m -86.7988644,0.016 0.0066,0.0251 z m 4.608962,0.0993 0.01984,0.016 z m 1.995223,0.18036 -0.0066,0.0251 z m -3.059351,0.008 0.01323,0.0331 z m 0.911173,0.0582 0.02659,0.008 z m -2.59379,0.0411 c -0.108532,0.37337 0.461671,-0.0715 0,0 z m 2.946267,0.008 0.02662,0.0491 z m 132.396396,0 -0.004,0.1237 z m -131.55174,0.0822 -0.0481,0.0638 z m -0.133032,0.19749 0.05977,0.0817 z m 122.273942,0.0902 -0.0322,0.11416 z m -120.611248,0.016 0.0399,0.0491 z m 39.05983,0 c 0.105119,0.56403 0.07395,0.39673 0,0 z m -40.642699,0.0411 0.04657,0.0411 z m 1.84224,0.0662 0.05432,0.0559 z m 130.081927,0.13129 -0.009,0.10996 z m -131.099488,0.016 0.01984,0.0171 z m -13.181787,0.1153 -0.03694,0.0855 z m 12.383698,0.0902 0.01323,0.0171 z m -0.23278,0.0331 0.01323,0.008 z m 132.216817,0.13128 0.0243,0.10043 z m -131.857672,0.0822 v 0.0251 z m -1.928706,0.1484 -0.0066,0.0251 z m 86.23355545,0.0571 c -0.513476,0.21847 0.348642,0.39131 0,0 z m 45.31151255,0.0822 c 0.62717,1.44278 1.63581,0.88077 0,0 z m -89.8715,0.0913 0.19775,0.13269 z m 90.93563,0.0822 -0.0161,0.10357 z m -90.337063,0.032 c 0.70358,1.07011 -0.661723,0.41239 0,0 z m 68.542563,0.0822 -0.035,0.0892 z m 22.02728,0.009 0.0881,0.22061 z m -130.121824,0.032 0.01323,0.0502 z m 82.63548745,0.0502 c -0.49350005,0.17657 0.486834,0.35215 0,0 z m -81.77754945,0.24658 v 0.008 z m 129.549846,0.016 0.11695,0.13276 z m -90.390269,0.008 0.05644,0.0631 z m -39.099728,0.0411 h 0.01323 z m 0.379121,0.008 0.02659,0.0251 z m -0.04657,0.0251 0.0066,0.016 z m -1.350116,0.15639 -0.04982,0.025 z m 1.123976,0.0982 -0.01984,0.008 z m 39.126346,0.55938 0.02963,0.0576 z m -0.472202,0.36188 0.0074,0.10108 z m 84.544272,0.49316 c -0.13195,0.65886 -0.10309,0.51469 0,0 z m -17.08579,0.032 -0.008,0.11419 z m -0.0266,0.1484 -0.008,0.1222 z m -0.0732,0.29567 0.0993,0.21718 z m 17.21877,0.80595 0.0249,0.10368 z m 0.0198,0.18037 v 0.11897 z m -54.762211,1.30711 0.04871,0.0647 z m -37.217588,0.29567 c 0.774144,0.005 -0.486754,0.3979 0,0 z m 37.563425,0.0331 0.05244,0.0396 z m -33.313494,0.84705 c -0.03707,0.77845 -0.71792,0.60764 0,0 z m -11.106732,0.73974 -0.07996,0.0293 z m 107.13019,0.42695 c 0.65632,5.6389 3.58542,2.52476 0,0 z m -15.03069,0.60846 c -1.14356,-0.19785 0.39127,0.62386 0,0 z m 3.28546,1.51259 -0.0406,0.0566 z m -88.268674,0.33676 0.07088,0.0253 z m 87.729964,0.27056 c -0.37135,0.22189 0.31628,0.36199 0,0 z m 1.63607,0.0742 c -0.18997,0.43587 0.53817,0.0997 0,0 z m 0.16629,0.31279 c -0.23973,0.11894 0.26176,0.0468 0,0 z m 10.38845,0.0822 c -4.93276,4.19706 1.56868,2.80319 0,0 z m -11.85826,0.1153 c 0.0655,3.52617 3.36857,-0.7581 0,0 z m -93.103779,0.55823 c -0.810656,1.26581 0.843466,0.4994 0,0 z m 0.146315,0.61645 0.08482,0.0194 z m 94.360764,-0.18836 -0.0352,0.0799 z m -0.37243,0.39384 0.003,0.0873 z m 15.44302,0.19749 -0.007,0.17396 z m -109.597618,0.0571 c -0.314378,0.0722 0.314378,0.0695 0,0 z m 0.0399,0.1975 h 0.0066 z m -0.226139,0.0411 v 0.008 z m 0.126391,0.0251 0.06787,0.049 z m 0.445585,0.0331 c -0.636297,0.28436 0.403595,0.32899 0,0 z m -0.558668,0.016 -0.05985,0.0571 z m 0.05321,0.0982 c -0.23114,0.21038 0.344805,-0.0403 0,0 z m -0.239422,0.0331 h 0.0066 z m 0.07316,0.008 v 0.009 z m 0.29927,0.0742 0.06191,0.0537 z m -0.113057,0.0251 c -0.215979,0.22437 0.326417,-0.0735 0,0 z m -0.385736,0.016 h 0.0066 z m 0.458894,0.0582 c -0.165259,0.31739 0.400447,-0.0482 0,0 z m 0.0399,0.13128 -0.09009,0.0105 z m -0.172905,0.016 h 0.0066 z m 0.133006,0.0662 c -0.218096,0.18848 0.290856,-0.0519 0,0 z m 0.126391,0.0331 0.02723,0.13509 z m -0.312605,0.024 c -0.195712,0.28263 0.292047,-0.0529 0,0 z m 0.212831,0.008 -0.03447,0.089 z m -0.27268,0.0251 -0.03535,0.08 z m -0.05988,0.1153 -0.105754,0.15049 z m 0.399071,0.016 -0.04929,0.0713 z m 102.887011,0.44407 c -0.49218,0.37628 0.39854,0.26216 0,0 z m -103.000094,0.18037 -0.05683,0.065 z m -0.106389,0.0171 -0.05667,0.0534 z m -0.365813,0.40297 v 0.008 z m 0.119724,0.032 -0.07734,0.0758 z m -0.186214,0.0582 c -0.34454,0.33852 0.568273,0.49718 0,0 z m 0.146315,0.0571 c -0.348483,0.0604 0.300223,0.26089 0,0 z m 0.08644,0.0902 0.01482,0.18182 z m -0.285961,0.0913 c -0.309378,0.0595 0.225663,0.18895 0,0 z m 0.305911,0.12329 c -1.02743,0.82973 0.774726,0.81335 0,0 z m -0.332528,0.0731 0.06144,0.11747 z m 0.246089,0.11531 -0.01561,0.10741 z m -0.186214,0.31279 c -0.280935,0.0473 0.283474,0.18337 0,0 z m 108.214234,0.008 -0.007,0.008 z m -108.114488,0.19745 c -0.449369,0.12128 0.404945,0.27362 0,0 z m -0.113057,0.22945 0.04784,0.13032 z m 0.425636,0 c -0.268526,0.14539 0.462835,0.28683 0,0 z m 102.454739,0.0502 -0.12486,0.13793 z m -102.627645,0.0731 c -0.16801,0.36517 0.596689,0.0727 0,0 z m 0.01323,0.26371 c -0.423175,0.3009 0.364013,0.0567 0,0 z m -0.152956,0.0411 -0.02768,0.15604 z m 7.122954,0.016 c -1.360832,0.58218 0.747553,0.28413 0,0 z m -0.425662,0.0251 c -0.99531,-0.11867 -0.293846,0.99783 0,0 z m -6.238399,0.13128 0.0066,0.0918 z m -0.179572,0.0571 0.129989,0.10176 z m -0.146315,0.0251 -0.06414,0.15537 z m 5.899229,0.008 -0.0029,0.0815 z m -5.819404,0.0491 -0.103611,0.12888 z m 0.272679,0.0822 0.143378,0.0854 z m -0.16629,0.0251 h 0.0066 z m 0.0066,0.0411 0.154041,0.10021 z m -0.219472,0.0251 0.08337,0.0289 z m 103.897913,0.12329 -0.0481,0.0558 z m -101.536903,0.032 c -2.279333,2.16761 3.563144,1.16441 0,0 z m -2.261262,0.12328 c 0.837248,0.45385 0.645981,0.35017 0,0 z m 0.25273,0.26371 -0.05371,0.0482 z m 0.445585,0.0822 c -0.60026,0.43776 0.91657,0.37219 0,0 z m -0.206163,0.008 -0.01693,0.0717 z m -0.146315,0.0251 0.07332,0.0386 z m 1.403297,0.0651 c -0.514641,0.28949 0.333481,0.36357 0,0 z m -0.591899,0.1484 c -0.47453,0.22769 0.451114,0.22611 0,0 z m 0.199522,0.0411 0.07916,0.13944 z m 14.338988,0.0411 c 0.914506,0.77083 0.680747,-0.0918 0,0 z m -15.06392,0.024 -0.08906,0.0111 z m 0.379095,0.009 -0.0399,0.0731 z m 98.404395,0.25456 -0.0198,0.0982 z m -94.806352,0.0822 -0.301546,0.0625 z m -3.152458,0.0651 c -0.230373,0.13252 0.302366,-0.0356 0,0 z m 0.385763,0.0251 -0.01085,0.009 z m -0.01323,0.008 -0.164094,0.0877 z m 0.937763,0 0.287073,0.15915 z m -0.558668,0.008 c -0.690218,0.0688 0.309907,0.0917 0,0 z m 0.432303,0.009 c -1.279763,-0.27228 0.219022,0.79518 0,0 z m 0.445585,0.34477 0.02797,0.0963 z"
       id="path4960"
       inkscape:connector-curvature="0" />
    <g
       aria-label="Worldwide"
       style="font-style:normal;font-variant:normal;font-weight:bold;font-stretch:normal;font-size:23.39473724px;line-height:1.25;font-family:'IBM Plex Sans';-inkscape-font-specification:'IBM Plex Sans Bold';letter-spacing:0px;word-spacing:0px;fill:#3c3c3c;fill-opacity:1;stroke:none;stroke-width:0.58486843"
       id="WORLD_Text">
      <path
         d="m -76.375688,165.1302 -3.696368,-16.32952 h 3.50921 l 1.544053,7.83723 0.865605,4.53858 h 0.07018 l 1.029368,-4.53858 1.801395,-7.83723 h 3.883526 l 1.82479,7.83723 1.005973,4.53858 h 0.07019 l 0.865605,-4.53858 1.567447,-7.83723 h 3.368842 l -3.789947,16.32952 h -4.04729 l -2.058736,-8.84321 -0.795422,-3.57939 h -0.07018 l -0.818816,3.57939 -2.058736,8.84321 z"
         style="font-style:normal;font-variant:normal;font-weight:bold;font-stretch:normal;font-family:'IBM Plex Sans';-inkscape-font-specification:'IBM Plex Sans Bold';fill:#3c3c3c;fill-opacity:1;stroke-width:0.58486843"
         id="path4485" />
      <path
         d="m -51.992158,165.41094 q -1.356895,0 -2.433052,-0.4445 -1.052764,-0.4445 -1.801395,-1.28671 -0.725237,-0.84221 -1.122948,-2.03534 -0.39771,-1.19313 -0.39771,-2.667 0,-1.47387 0.39771,-2.667 0.397711,-1.19313 1.122948,-2.01195 0.748631,-0.84221 1.801395,-1.28671 1.076157,-0.4445 2.433052,-0.4445 1.356895,0 2.409658,0.4445 1.076158,0.4445 1.801395,1.28671 0.748631,0.81882 1.146342,2.01195 0.397711,1.19313 0.397711,2.667 0,1.47387 -0.397711,2.667 -0.397711,1.19313 -1.146342,2.03534 -0.725237,0.84221 -1.801395,1.28671 -1.052763,0.4445 -2.409658,0.4445 z m 0,-2.73718 q 1.029369,0 1.590842,-0.63166 0.561474,-0.63166 0.561474,-1.8014 v -2.50323 q 0,-1.16974 -0.561474,-1.8014 -0.561473,-0.63166 -1.590842,-0.63166 -1.029368,0 -1.590842,0.63166 -0.561474,0.63166 -0.561474,1.8014 v 2.50323 q 0,1.16974 0.561474,1.8014 0.561474,0.63166 1.590842,0.63166 z"
         style="font-style:normal;font-variant:normal;font-weight:bold;font-stretch:normal;font-family:'IBM Plex Sans';-inkscape-font-specification:'IBM Plex Sans Bold';fill:#3c3c3c;fill-opacity:1;stroke-width:0.58486843"
         id="path4487" />
      <path
         d="m -43.770002,165.1302 v -12.28223 h 3.462421 v 2.667 h 0.116973 q 0.09358,-0.51469 0.327527,-0.98258 0.233947,-0.49129 0.608263,-0.86561 0.39771,-0.37431 0.935789,-0.58487 0.538079,-0.23394 1.263316,-0.23394 h 0.608263 v 3.22847 h -0.865605 q -1.520658,0 -2.269289,0.39771 -0.725237,0.39771 -0.725237,1.47387 v 7.18218 z"
         style="font-style:normal;font-variant:normal;font-weight:bold;font-stretch:normal;font-family:'IBM Plex Sans';-inkscape-font-specification:'IBM Plex Sans Bold';fill:#3c3c3c;fill-opacity:1;stroke-width:0.58486843"
         id="path4489" />
      <path
         d="m -30.87256,165.1302 q -1.778,0 -2.620211,-0.8656 -0.818815,-0.86561 -0.818815,-2.50324 V 147.8181 h 3.462421 v 14.62171 h 1.544052 v 2.69039 z"
         style="font-style:normal;font-variant:normal;font-weight:bold;font-stretch:normal;font-family:'IBM Plex Sans';-inkscape-font-specification:'IBM Plex Sans Bold';fill:#3c3c3c;fill-opacity:1;stroke-width:0.58486843"
         id="path4491" />
      <path
         d="m -19.696087,163.07147 h -0.116974 q -0.140368,0.49129 -0.4445,0.93579 -0.304132,0.4211 -0.748632,0.74863 -0.421105,0.30413 -0.982579,0.46789 -0.538079,0.18716 -1.122947,0.18716 -2.339474,0 -3.532605,-1.63763 -1.193132,-1.66103 -1.193132,-4.79592 0,-3.1349 1.193132,-4.77253 1.193131,-1.63763 3.532605,-1.63763 1.193132,0 2.105526,0.65505 0.93579,0.65505 1.193132,1.68442 h 0.116974 v -7.0886 h 3.462421 v 17.3121 h -3.462421 z m -2.26929,-0.4679 q 0.982579,0 1.614237,-0.46789 0.655053,-0.49129 0.655053,-1.3335 v -3.62619 q 0,-0.84221 -0.655053,-1.3101 -0.631658,-0.49129 -1.614237,-0.49129 -0.982579,0 -1.637631,0.70184 -0.631658,0.67845 -0.631658,1.84818 v 2.12893 q 0,1.16973 0.631658,1.87157 0.655052,0.67845 1.637631,0.67845 z"
         style="font-style:normal;font-variant:normal;font-weight:bold;font-stretch:normal;font-family:'IBM Plex Sans';-inkscape-font-specification:'IBM Plex Sans Bold';fill:#3c3c3c;fill-opacity:1;stroke-width:0.58486843"
         id="path4493" />
      <path
         d="m -14.188457,152.84797 h 3.345447 l 1.1931316,4.95968 0.8422105,3.74316 h 0.093579 l 0.9825789,-3.74316 1.4036843,-4.95968 h 3.1582895 l 1.427079,4.95968 1.00597366,3.74316 h 0.093579 l 0.84221054,-3.74316 1.19313165,-4.95968 h 3.205079 L 1.2052797,165.1302 h -3.6261843 l -1.4972632,-5.19363 -0.8656053,-3.18168 h -0.070184 l -0.8422105,3.18168 -1.4972632,5.19363 h -3.556 z"
         style="font-style:normal;font-variant:normal;font-weight:bold;font-stretch:normal;font-family:'IBM Plex Sans';-inkscape-font-specification:'IBM Plex Sans Bold';fill:#3c3c3c;fill-opacity:1;stroke-width:0.58486843"
         id="path4495" />
      <path
         d="m 8.4061087,151.53786 q -1.0527631,0 -1.5440526,-0.46789 -0.4678948,-0.49129 -0.4678948,-1.23992 v -0.51469 q 0,-0.74863 0.4678948,-1.21653 0.4912895,-0.49128 1.5440526,-0.49128 1.0527632,0 1.520658,0.49128 0.4912893,0.4679 0.4912893,1.21653 v 0.51469 q 0,0.74863 -0.4912893,1.23992 -0.4678948,0.46789 -1.520658,0.46789 z m -1.7312105,1.31011 H 10.137319 V 165.1302 H 6.6748982 Z"
         style="font-style:normal;font-variant:normal;font-weight:bold;font-stretch:normal;font-family:'IBM Plex Sans';-inkscape-font-specification:'IBM Plex Sans Bold';fill:#3c3c3c;fill-opacity:1;stroke-width:0.58486843"
         id="path4497" />
      <path
         d="m 20.879161,163.07147 h -0.116973 q -0.140369,0.49129 -0.4445,0.93579 -0.304132,0.4211 -0.748632,0.74863 -0.421105,0.30413 -0.982579,0.46789 -0.538079,0.18716 -1.122947,0.18716 -2.339474,0 -3.532606,-1.63763 -1.193131,-1.66103 -1.193131,-4.79592 0,-3.1349 1.193131,-4.77253 1.193132,-1.63763 3.532606,-1.63763 1.193131,0 2.105526,0.65505 0.93579,0.65505 1.193132,1.68442 h 0.116973 v -7.0886 h 3.462422 v 17.3121 h -3.462422 z m -2.269289,-0.4679 q 0.982579,0 1.614237,-0.46789 0.655052,-0.49129 0.655052,-1.3335 v -3.62619 q 0,-0.84221 -0.655052,-1.3101 -0.631658,-0.49129 -1.614237,-0.49129 -0.982579,0 -1.637632,0.70184 -0.631658,0.67845 -0.631658,1.84818 v 2.12893 q 0,1.16973 0.631658,1.87157 0.655053,0.67845 1.637632,0.67845 z"
         style="font-style:normal;font-variant:normal;font-weight:bold;font-stretch:normal;font-family:'IBM Plex Sans';-inkscape-font-specification:'IBM Plex Sans Bold';fill:#3c3c3c;fill-opacity:1;stroke-width:0.58486843"
         id="path4499" />
      <path
         d="m 32.679976,165.41094 q -1.403685,0 -2.503237,-0.4445 -1.099553,-0.46789 -1.871579,-1.28671 -0.748632,-0.84221 -1.146342,-2.03534 -0.374316,-1.19313 -0.374316,-2.667 0,-1.45048 0.374316,-2.62021 0.374315,-1.19313 1.099552,-2.03535 0.748632,-0.84221 1.82479,-1.28671 1.076158,-0.46789 2.456447,-0.46789 1.520658,0 2.596816,0.51468 1.099553,0.51469 1.778,1.38029 0.701842,0.86561 1.005974,2.01195 0.327526,1.12295 0.327526,2.36287 v 1.02937 h -7.884026 v 0.18716 q 0,1.21652 0.655052,1.94176 0.655053,0.70184 2.058737,0.70184 1.076158,0 1.754605,-0.4211 0.678448,-0.4445 1.263316,-1.05277 l 1.731211,2.15232 q -0.818816,0.95918 -2.152316,1.49726 -1.310105,0.53808 -2.994526,0.53808 z m -0.07019,-10.29368 q -1.052763,0 -1.661026,0.70184 -0.584868,0.67845 -0.584868,1.82479 v 0.18716 h 4.304631 v -0.21056 q 0,-1.12294 -0.514684,-1.80139 -0.491289,-0.70184 -1.544053,-0.70184 z"
         style="font-style:normal;font-variant:normal;font-weight:bold;font-stretch:normal;font-family:'IBM Plex Sans';-inkscape-font-specification:'IBM Plex Sans Bold';fill:#3c3c3c;fill-opacity:1;stroke-width:0.58486843"
         id="path4501" />
    </g>
  </g>
</svg>
