<?xml version="1.0" encoding="UTF-8" standalone="no"?>
<!-- Created with Inkscape (http://www.inkscape.org/) -->

<svg
   xmlns:dc="http://purl.org/dc/elements/1.1/"
   xmlns:cc="http://creativecommons.org/ns#"
   xmlns:rdf="http://www.w3.org/1999/02/22-rdf-syntax-ns#"
   xmlns:svg="http://www.w3.org/2000/svg"
   xmlns="http://www.w3.org/2000/svg"
   xmlns:sodipodi="http://sodipodi.sourceforge.net/DTD/sodipodi-0.dtd"
   xmlns:inkscape="http://www.inkscape.org/namespaces/inkscape"
   width="350mm"
   height="16.273575mm"
   viewBox="0 0 350.00001 16.273574"
   version="1.1"
   id="svg8"
   inkscape:version="0.92.1 r15371"
   sodipodi:docname="manufacturers.svg">
  <defs
     id="defs2" />
  <sodipodi:namedview
     id="base"
     pagecolor="#ffffff"
     bordercolor="#666666"
     borderopacity="1.0"
     inkscape:pageopacity="0.0"
     inkscape:pageshadow="2"
     inkscape:zoom="0.7"
     inkscape:cx="320.02495"
     inkscape:cy="-38.067463"
     inkscape:document-units="mm"
     inkscape:current-layer="layer1"
     showgrid="false"
     fit-margin-top="0"
     fit-margin-left="0"
     fit-margin-right="0"
     fit-margin-bottom="0"
     inkscape:window-width="3200"
     inkscape:window-height="1690"
     inkscape:window-x="0"
     inkscape:window-y="54"
     inkscape:window-maximized="1" />
  <metadata
     id="metadata5">
    <rdf:RDF>
      <cc:Work
         rdf:about="">
        <dc:format>image/svg+xml</dc:format>
        <dc:type
           rdf:resource="http://purl.org/dc/dcmitype/StillImage" />
        <dc:title></dc:title>
      </cc:Work>
    </rdf:RDF>
  </metadata>
  <g
     inkscape:label="Layer 1"
     inkscape:groupmode="layer"
     id="layer1"
     transform="translate(20.772416,-39.500743)">
    <g
       id="g4514"
       transform="matrix(0.1132889,0,0,0.1132889,234.45576,40.330396)"
       style="fill:#007500;fill-opacity:1">
      <g
         id="g4504"
         style="fill:#007500;fill-opacity:1">
        <path
           id="path4500"
           d="m 213.2,74.3 -3.6,10.2 h -0.3 c -0.6,-2.3 -1.7,-5.8 -3.5,-10 L 186.5,26 h -18.9 v 77.3 h 12.5 V 55.6 c 0,-3 0,-6.4 -0.1,-10.6 -0.1,-2.1 -0.3,-3.7 -0.4,-4.9 h 0.3 c 0.6,3 1.3,5.2 1.8,6.6 l 23.2,56.4 h 8.8 l 23,-56.9 c 0.5,-1.3 1,-3.9 1.5,-6.1 h 0.3 c -0.3,5.7 -0.5,10.8 -0.6,13.9 v 49 h 13.3 V 25.8 H 233 Z m 50.6,-26.7 h 13 V 103 h -13 z m 6.6,-23.4 c -2.2,0 -4,0.8 -5.5,2.2 -1.5,1.4 -2.3,3.2 -2.3,5.4 0,2.1 0.8,3.9 2.3,5.3 1.5,1.4 3.3,2.1 5.5,2.1 2.2,0 4.1,-0.8 5.5,-2.1 1.5,-1.4 2.3,-3.2 2.3,-5.3 0,-2.1 -0.8,-3.9 -2.3,-5.4 -1.3,-1.4 -3.2,-2.2 -5.5,-2.2 m 52.5,22.9 c -2.4,-0.5 -4.9,-0.8 -7.3,-0.8 -5.9,0 -11.3,1.3 -15.8,3.9 -4.5,2.6 -8.1,6.2 -10.4,10.7 -2.4,4.6 -3.6,9.9 -3.6,16 0,5.3 1.2,10 3.5,14.3 2.3,4.2 5.5,7.6 9.8,9.9 4.1,2.3 8.9,3.5 14.3,3.5 6.2,0 11.5,-1.3 15.7,-3.7 l 0.1,-0.1 v -12 l -0.5,0.4 c -1.9,1.4 -4.1,2.6 -6.3,3.3 -2.3,0.8 -4.4,1.2 -6.2,1.2 -5.2,0 -9.3,-1.5 -12.2,-4.8 -3,-3.2 -4.5,-7.6 -4.5,-13.1 0,-5.7 1.5,-10.2 4.6,-13.5 3.1,-3.3 7.2,-5 12.2,-5 4.2,0 8.5,1.4 12.4,4.2 l 0.5,0.4 V 49.2 l -0.1,-0.1 c -1.7,-0.7 -3.6,-1.5 -6.2,-2 m 42.9,-0.4 c -3.2,0 -6.2,1 -8.8,3.1 -2.2,1.8 -3.7,4.4 -5,7.5 h -0.1 v -9.7 h -13 V 103 h 13 V 74.7 c 0,-4.8 1,-8.8 3.2,-11.7 2.2,-3 5,-4.5 8.4,-4.5 1.2,0 2.4,0.3 3.9,0.5 1.4,0.4 2.4,0.8 3.1,1.3 l 0.5,0.4 v -13 l -0.3,-0.1 C 369.8,47 368,46.7 365.8,46.7 m 35.4,-0.3 c -9.1,0 -16.4,2.7 -21.5,8 -5.2,5.3 -7.7,12.6 -7.7,21.8 0,8.6 2.6,15.6 7.6,20.7 5,5 11.8,7.6 20.3,7.6 8.9,0 16,-2.7 21.1,-8.1 5.2,-5.4 7.7,-12.6 7.7,-21.5 0,-8.8 -2.4,-15.8 -7.3,-20.9 -4.7,-5.1 -11.6,-7.6 -20.2,-7.6 M 411.6,89 c -2.4,3.1 -6.2,4.6 -10.9,4.6 -4.7,0 -8.5,-1.5 -11.2,-4.8 -2.7,-3.1 -4,-7.6 -4,-13.3 0,-5.9 1.4,-10.4 4,-13.6 2.7,-3.2 6.4,-4.8 11.1,-4.8 4.6,0 8.2,1.5 10.8,4.6 2.6,3.1 4,7.6 4,13.5 -0.2,6 -1.3,10.7 -3.8,13.8 m 46.1,-18.4 c -4.1,-1.7 -6.7,-3 -7.9,-4.1 -1,-1 -1.5,-2.4 -1.5,-4.2 0,-1.5 0.6,-3 2.1,-4 1.5,-1 3.2,-1.5 5.7,-1.5 2.2,0 4.5,0.4 6.7,1 2.2,0.6 4.2,1.5 5.8,2.7 l 0.5,0.4 V 48.7 l -0.3,-0.1 c -1.5,-0.6 -3.5,-1.2 -5.9,-1.7 -2.4,-0.4 -4.6,-0.6 -6.4,-0.6 -6.2,0 -11.3,1.5 -15.3,4.8 -4,3.1 -5.9,7.3 -5.9,12.2 0,2.6 0.4,4.9 1.3,6.8 0.9,1.9 2.2,3.7 4,5.2 1.8,1.4 4.4,3 8,4.5 3,1.3 5.3,2.3 6.7,3.1 1.4,0.8 2.3,1.7 3,2.4 0.5,0.8 0.8,1.8 0.8,3.1 0,3.7 -2.8,5.5 -8.5,5.5 -2.2,0 -4.5,-0.4 -7.2,-1.3 -2.7,-0.9 -5.2,-2.2 -7.3,-3.7 l -0.5,-0.4 v 12.7 l 0.3,0.1 c 1.9,0.9 4.2,1.5 7,2.2 2.8,0.5 5.3,0.9 7.5,0.9 6.7,0 12.2,-1.5 16.1,-4.8 4,-3.2 6.1,-7.3 6.1,-12.6 0,-3.7 -1,-7 -3.2,-9.5 -2.9,-2.4 -6.5,-4.9 -11.7,-6.9 m 49.2,-24.2 c -9.1,0 -16.4,2.7 -21.5,8 -5.1,5.3 -7.7,12.6 -7.7,21.8 0,8.6 2.6,15.6 7.6,20.7 5,5 11.8,7.6 20.3,7.6 8.9,0 16,-2.7 21.1,-8.1 5.2,-5.4 7.7,-12.6 7.7,-21.5 0,-8.8 -2.4,-15.8 -7.3,-20.9 -4.7,-5.1 -11.6,-7.6 -20.2,-7.6 M 517.2,89 c -2.4,3.1 -6.2,4.6 -10.9,4.6 -4.8,0 -8.5,-1.5 -11.2,-4.8 -2.7,-3.1 -4,-7.6 -4,-13.3 0,-5.9 1.4,-10.4 4,-13.6 2.7,-3.2 6.4,-4.8 11.1,-4.8 4.5,0 8.2,1.5 10.8,4.6 2.6,3.1 4,7.6 4,13.5 0,6 -1.3,10.7 -3.8,13.8"
           inkscape:connector-curvature="0"
           style="fill:#007500;fill-opacity:1" />
        <path
           id="path4502"
           d="M 603.9,58.3 V 47.6 H 590.8 V 31.2 l -0.4,0.1 -12.4,3.7 -0.3,0.1 v 12.5 h -19.6 v -7 c 0,-3.2 0.8,-5.7 2.2,-7.3 1.4,-1.6 3.5,-2.4 6.1,-2.4 1.8,0 3.7,0.4 5.8,1.3 l 0.5,0.3 V 21.2 l -0.3,-0.1 c -1.8,-0.6 -4.2,-1 -7.3,-1 -3.9,0 -7.3,0.9 -10.4,2.4 -3.1,1.7 -5.4,4 -7.1,7.1 -1.7,3 -2.6,6.4 -2.6,10.3 v 7.7 h -9.1 V 58.2 H 545 V 103 h 13.1 V 58.3 h 19.6 v 28.5 c 0,11.7 5.5,17.6 16.5,17.6 1.8,0 3.7,-0.3 5.5,-0.6 1.9,-0.4 3.3,-0.9 4.1,-1.3 l 0.1,-0.1 V 91.7 l -0.5,0.4 c -0.8,0.5 -1.5,0.9 -2.7,1.2 -1,0.3 -1.9,0.4 -2.6,0.4 -2.6,0 -4.4,-0.6 -5.7,-2.1 -1.2,-1.4 -1.8,-3.7 -1.8,-7.1 V 58.3 Z"
           inkscape:connector-curvature="0"
           style="fill:#007500;fill-opacity:1" />
      </g>
      <path
         id="path4506"
         d="M 0,0 H 61.3 V 61.3 H 0 Z"
         inkscape:connector-curvature="0"
         style="fill:#007500;fill-opacity:1" />
      <path
         id="path4508"
         d="M 67.7,0 H 129 V 61.3 H 67.7 Z"
         inkscape:connector-curvature="0"
         style="fill:#007500;fill-opacity:1" />
      <path
         id="path4510"
         d="M 0,67.7 H 61.3 V 129 H 0 Z"
         inkscape:connector-curvature="0"
         style="fill:#007500;fill-opacity:1" />
      <path
         id="path4512"
         d="M 67.7,67.7 H 129 V 129 H 67.7 Z"
         inkscape:connector-curvature="0"
         style="fill:#007500;fill-opacity:1" />
    </g>
    <path
       d="m 175.37678,53.767231 c -2.52245,0 -4.86399,-0.75646 -6.42695,-2.159336 -1.18084,-1.059882 -1.74825,-2.499534 -1.74825,-3.981272 0,-1.4637 0.59188,-2.913278 1.74811,-3.967568 1.45154,-1.322895 4.01426,-2.151366 6.42709,-2.151366 2.67013,0 4.80724,0.672565 6.44097,2.155002 1.16237,1.054848 1.72433,2.497994 1.72433,3.964072 0,1.421055 -0.59635,2.934393 -1.72433,3.981132 -1.52132,1.411964 -3.91206,2.159336 -6.44097,2.159336 v -1.616949 c 1.33885,0 2.58078,-0.462267 3.44813,-1.325273 0.86133,-0.857135 1.26263,-1.910725 1.26263,-3.198386 0,-1.233546 -0.43291,-2.386832 -1.26263,-3.204816 -0.85574,-0.842872 -2.12732,-1.317162 -3.44813,-1.317162 -1.32484,0 -2.59726,0.469396 -3.4537,1.317162 -0.82523,0.817704 -1.25927,1.974346 -1.25927,3.204816 0,1.226696 0.43906,2.382639 1.25927,3.198525 0.85714,0.85266 2.12508,1.325273 3.4537,1.325273 v 1.616949 z m -18.43662,-12.25367 c -1.34933,0 -2.88225,0.252387 -4.18473,0.834064 -1.20208,0.536373 -2.18604,1.403855 -2.18604,2.841967 -5.3e-4,1.295211 0.8226,2.053768 0.80022,2.032794 0.35013,0.322299 0.91377,0.871117 2.3874,1.193417 0.65858,0.144021 2.06663,0.365226 3.46881,0.511764 1.39182,0.146817 2.76157,0.286364 3.31947,0.427587 0.44326,0.112841 1.18782,0.266509 1.18782,1.101832 0,0.831965 -0.78442,1.085889 -0.92076,1.140982 -0.13618,0.05383 -1.07721,0.485615 -2.76883,0.485615 -1.24893,0 -2.75038,-0.375571 -3.29767,-0.571329 -0.63088,-0.224561 -1.29269,-0.521551 -1.91002,-1.275635 -0.15353,-0.186947 -0.3957,-0.701088 -0.3957,-1.210195 h -1.53096 v 4.289868 h 1.70168 v -0.57958 c 0,-0.066 0.0825,-0.3374 0.36817,-0.208341 0.35543,0.161499 1.39882,0.576923 2.48973,0.8047 0.89448,0.187087 1.47127,0.32118 2.58331,0.32118 1.81437,0 2.7891,-0.295592 3.46293,-0.487993 0.63481,-0.181774 1.41923,-0.508129 2.05642,-1.016258 0.34509,-0.274757 1.10183,-0.979062 1.10183,-2.257493 0,-1.227114 -0.65859,-1.988747 -0.89028,-2.220441 -0.31558,-0.315727 -0.70109,-0.560422 -1.1028,-0.749047 -0.34999,-0.164716 -0.9023,-0.36257 -1.35421,-0.473172 -0.87713,-0.215334 -2.86044,-0.481003 -3.80888,-0.58028 -0.99458,-0.103893 -2.7199,-0.246793 -3.40896,-0.460028 -0.2089,-0.06474 -0.63481,-0.267627 -0.63481,-0.762052 0,-0.351664 0.19478,-0.649773 0.57972,-0.890693 0.61104,-0.382844 1.84529,-0.620829 3.13183,-0.620829 1.52103,-0.0056 2.80911,0.342154 3.62849,0.7085 0.27867,0.124445 0.60475,0.303143 0.8637,0.51456 0.29224,0.238264 0.70249,0.733389 0.85084,1.423991 h 1.37449 v -3.7342 h -1.53473 v 0.434021 c 0,0.140106 -0.1447,0.32216 -0.41836,0.171707 -0.68682,-0.360333 -2.62873,-1.137767 -5.0094,-1.140983 m 33.63322,0.678577 7.48659,6.756402 -0.0768,-4.548966 c -0.008,-0.596498 -0.11746,-0.845528 -0.76262,-0.845528 h -1.40762 v -1.36079 h 6.40124 v 1.36079 h -1.3731 c -0.65803,0 -0.69955,0.210438 -0.70753,0.845528 l 0.11607,8.692017 h -2.1922 l -8.62308,-7.696035 0.002,5.461893 c 0.008,0.593702 0.0354,0.873354 0.64713,0.873354 h 1.53739 v 1.360229 h -6.28658 v -1.36009 h 1.46957 c 0.54897,0 0.52715,-0.523369 0.52715,-0.904396 V 44.45131 c 0,-0.411508 -0.0577,-0.896285 -0.91964,-0.896285 h -1.19243 v -1.362887 z m 18.95541,9.536147 c 0.0601,0 0.32718,-0.0077 0.37892,-0.02349 0.14779,-0.04614 0.24805,-0.151571 0.29447,-0.261474 0.0196,-0.04614 0.0293,-0.250289 0.0293,-0.294614 l 7.6e-4,-2.150527 c 0,-0.05174 -0.003,-0.07411 -0.0916,-0.189325 -0.0965,-0.125843 -3.92144,-4.460455 -4.09648,-4.651319 -0.21745,-0.237004 -0.59917,-0.60335 -1.17917,-0.60335 h -1.33017 v -1.361348 h 7.50685 v 1.359669 h -0.90495 c -0.20932,0 -0.34845,0.198555 -0.16961,0.419201 0,0 2.52568,3.021225 2.54958,3.052824 0.0235,0.03216 0.0436,0.03985 0.0759,0.01047 0.0315,-0.03006 2.58902,-3.035626 2.60916,-3.059397 0.12165,-0.145698 0.0392,-0.421576 -0.22303,-0.421576 h -0.9283 v -1.361206 h 6.15235 v 1.361209 H 218.828 c -0.49862,0 -0.70151,0.09228 -1.07666,0.516378 -0.17157,0.194079 -4.03735,4.606573 -4.14249,4.726126 -0.055,0.0625 -0.0503,0.149613 -0.0503,0.201348 v 2.150248 c 0,0.04363 0.01,0.248052 0.0294,0.293916 0.0465,0.110462 0.14738,0.215891 0.29503,0.261474 0.0517,0.01594 0.31517,0.02377 0.37515,0.02377 h 1.40596 v 1.361069 h -7.46807 v -1.361208 l 1.33252,0.0012 z"
       id="path4258"
       inkscape:connector-curvature="0"
       style="fill:#08327d;fill-opacity:1;stroke-width:0.13982619" />
    <path
       style="fill:#f54123;fill-opacity:1;stroke-width:0.03495242"
       d="m 81.50081,55.765843 c -2.051936,-0.172246 -3.646872,-0.777903 -5.071701,-1.925907 -1.48092,-1.193194 -2.528391,-3.054976 -2.787891,-4.95524 -0.149829,-1.097156 -0.15214,-1.214095 -0.04179,-2.123157 0.261183,-2.152476 1.272729,-4.026473 2.868275,-5.313737 1.254554,-1.01216 2.842312,-1.668336 4.456435,-1.841724 0.201853,-0.02171 0.462661,-0.05415 0.579581,-0.07214 0.28754,-0.04426 49.723651,-0.04426 50.011181,0 0.11691,0.01797 0.37772,0.05045 0.57957,0.07214 2.56175,0.275184 4.81547,1.655016 6.1656,3.774855 0.42634,0.669402 0.8643,1.763605 1.03162,2.57749 0.16436,0.799482 0.24164,1.715982 0.18289,2.168865 -0.0217,0.167351 -0.0561,0.44583 -0.0764,0.618846 -0.30762,2.616061 -1.98167,4.933841 -4.4201,6.119761 -0.8474,0.412131 -1.72157,0.673499 -2.81789,0.842515 -0.37619,0.058 -1.7535,0.06153 -25.45859,0.06524 -13.783478,0.0022 -25.123793,-0.0012 -25.200689,-0.0078 z m 50.30663,-2.041427 c 2.74747,-0.302652 4.80695,-2.014776 5.4207,-4.506426 0.14107,-0.572724 0.17908,-0.910464 0.17883,-1.589421 -4.1e-4,-1.257785 -0.32479,-2.377396 -0.96929,-3.346214 -1.00418,-1.509444 -2.56674,-2.412545 -4.65783,-2.692042 -0.48886,-0.06535 -50.052323,-0.06535 -50.541187,0 -1.505134,0.201177 -2.69225,0.704252 -3.670003,1.555272 -1.035215,0.901032 -1.745184,2.26661 -1.920898,3.69472 -0.04684,0.380796 -0.04684,1.263805 0,1.644601 0.145516,1.182645 0.646227,2.313828 1.411484,3.188722 0.970687,1.109766 2.485327,1.865098 4.109514,2.049364 0.403996,0.04583 50.2228,0.04723 50.63868,0.0012 z m -24.82632,-1.991137 c -0.26525,-0.04068 -0.7391,-0.186563 -1.02193,-0.314644 -0.59256,-0.268338 -1.19523,-0.835135 -1.45888,-1.372032 -0.0869,-0.17699 -0.18458,-0.42404 -0.21706,-0.548994 -0.0721,-0.277329 -0.0791,-0.848942 -0.0137,-1.118478 0.27254,-1.123612 1.2893,-2.005761 2.59797,-2.254013 0.36062,-0.0684 1.09034,-0.06832 1.45142,1.35e-4 1.49046,0.28273 2.55255,1.333691 2.67509,2.647047 l 0.0155,0.166024 h -2.16524 -2.16524 l 0.0112,0.742741 c 0.011,0.728196 0.0131,0.746221 0.1051,0.920646 0.17531,0.332257 0.4555,0.508501 0.81489,0.512592 0.40138,0.0046 0.74376,-0.229519 0.87534,-0.598455 0.0318,-0.08907 0.0662,-0.315301 0.0765,-0.502738 l 0.0187,-0.340786 h 1.14824 1.14825 l -0.0722,0.183504 c -0.0397,0.100919 -0.1571,0.311253 -0.26089,0.4674 -0.41816,0.629093 -1.13249,1.112404 -1.96558,1.329909 -0.27268,0.07118 -0.44211,0.09088 -0.86353,0.100412 -0.28836,0.0064 -0.61865,-0.0026 -0.734,-0.0203 z m 1.59034,-3.853616 c 0,-0.485416 -0.14848,-0.832137 -0.43658,-1.01948 -0.29638,-0.192722 -0.64779,-0.203736 -0.96678,-0.03029 -0.33219,0.180602 -0.48407,0.498705 -0.48407,1.01383 v 0.290752 h 0.94371 0.94372 z m 20.55203,3.830587 c -0.71236,-0.120605 -1.42389,-0.463259 -1.8973,-0.913692 -1.39774,-1.329916 -1.03906,-3.420308 0.74387,-4.335279 0.63384,-0.325282 0.9961,-0.407306 1.78256,-0.403615 0.54151,0.0026 0.65021,0.01319 0.94787,0.09295 1.16825,0.313001 2.02854,1.09964 2.30554,2.108169 0.0935,0.340357 0.10066,0.900686 0.0155,1.221359 -0.21053,0.793867 -0.77655,1.459072 -1.59132,1.870157 -0.54613,0.27556 -1.05502,0.386376 -1.74271,0.379511 -0.26221,-0.0026 -0.51605,-0.0114 -0.56412,-0.01955 z m 1.0212,-0.734672 c 0.0938,-0.05111 0.21762,-0.156695 0.27496,-0.234664 0.19874,-0.27026 0.20856,-0.35768 0.20832,-1.855128 -3.9e-4,-1.511552 -0.0106,-1.598869 -0.22121,-1.875088 -0.16712,-0.219094 -0.40089,-0.32701 -0.70564,-0.325722 -0.29544,0.0012 -0.47396,0.08232 -0.66008,0.299769 -0.24308,0.283993 -0.24959,0.333599 -0.24959,1.901196 0,1.620299 0.005,1.650767 0.29827,1.944382 0.28831,0.288307 0.69043,0.343671 1.05497,0.145255 z m -8.69191,0.617425 c -0.98381,-0.153606 -1.843,-0.844445 -2.15304,-1.731188 -0.38268,-1.094445 -0.12385,-2.148231 0.72472,-2.950685 0.32383,-0.306226 0.57197,-0.461602 0.9668,-0.605372 0.24358,-0.08869 0.34985,-0.10631 0.72525,-0.120227 0.53484,-0.01981 0.86409,0.05028 1.33399,0.284032 l 0.30583,0.152142 v -1.410673 -1.410668 h 1.13596 1.13595 v 3.82729 3.827291 h -1.13595 -1.13596 l -0.004,-0.09613 c -0.002,-0.05287 -0.002,-0.107914 0,-0.122331 0.006,-0.04243 -0.0231,-0.03257 -0.29121,0.0964 -0.47612,0.229006 -1.13002,0.334768 -1.6082,0.26011 z m 1.44047,-0.911385 c 0.19043,-0.09202 0.34649,-0.281587 0.41166,-0.500043 0.078,-0.261244 0.0744,-2.305744 -0.005,-2.57379 -0.0685,-0.232924 -0.30873,-0.483922 -0.52517,-0.548771 -0.34948,-0.104702 -0.68718,-0.03151 -0.92731,0.20098 -0.2676,0.259089 -0.28056,0.342431 -0.26767,1.720917 l 0.0109,1.16332 0.0956,0.181328 c 0.0526,0.09973 0.15201,0.224347 0.22092,0.276911 0.25622,0.195421 0.67526,0.22908 0.98549,0.07915 z m -42.784248,0.785441 c -0.01307,-0.01306 -0.02375,-1.743425 -0.02375,-3.84523 v -3.821465 h 1.189143 1.189149 l 0.13031,0.202987 c 0.0717,0.111639 0.80663,1.298322 1.63326,2.637067 l 1.502958,2.434084 0.0175,-2.628332 0.0175,-2.628331 1.17964,-0.0092 1.17964,-0.0092 v 3.845696 3.845696 l -1.17819,-0.0092 -1.1782,-0.0092 -1.644208,-2.647333 -1.64421,-2.647333 -0.0175,2.647333 -0.0175,2.647333 -1.155878,0.0092 c -0.635743,0.005 -1.166581,-0.0012 -1.179646,-0.01454 z m 9.34348,-2.528214 v -2.552001 h 1.15366 1.15366 l -0.009,2.542789 -0.009,2.542788 -1.14469,0.0092 -1.14469,0.0092 z m 11.525788,0.0087 -0.009,-2.543266 -0.6204,-0.0095 -0.620408,-0.0095 v -0.383672 -0.383672 h 0.629138 0.62915 v -0.506811 -0.506809 h 1.15343 1.15343 v 0.506809 0.50681 h 0.61166 0.61167 v 0.384478 0.384478 h -0.61144 -0.61144 l -0.009,2.542788 -0.009,2.542788 -1.14446,0.0092 -1.14447,0.0092 z m -7.960638,-0.02667 v -2.53405 h 1.13595 1.13596 v 0.244667 c 0,0.134566 0.008,0.244662 0.018,0.244662 0.01,0 0.1044,-0.0704 0.21005,-0.15644 0.22276,-0.181444 0.67626,-0.408342 0.97784,-0.489243 1.15064,-0.308666 2.46007,0.244901 2.95088,1.247487 0.26165,0.534485 0.25935,0.514831 0.27374,2.342939 l 0.0128,1.634029 h -1.15562 -1.15561 l -0.003,-1.738885 c -0.002,-1.238513 -0.0145,-1.770906 -0.0437,-1.850173 -0.0892,-0.241901 -0.25256,-0.418378 -0.50005,-0.54017 -0.20879,-0.102752 -0.27172,-0.117247 -0.50154,-0.115546 -0.42605,0.0031 -0.77127,0.198766 -0.96362,0.545983 l -0.10307,0.186072 -0.01,1.756359 -0.01,1.75636 h -1.13472 -1.13473 z m 18.664588,0 v -2.53405 h 1.15343 1.15343 v 0.244593 0.244596 l 0.21846,-0.161012 c 0.27616,-0.203557 0.60293,-0.368783 0.93648,-0.473524 0.36616,-0.114981 1.01119,-0.116029 1.40678,-0.0022 0.73238,0.210587 1.28178,0.640628 1.58444,1.240227 0.2423,0.480023 0.25733,0.619704 0.2576,2.393903 l 4e-4,1.581598 h -1.13417 -1.13416 l -0.0105,-1.756355 -0.0105,-1.756359 -0.082,-0.165001 c -0.30914,-0.621967 -1.17704,-0.769147 -1.70999,-0.289982 -0.33476,0.300979 -0.32262,0.217451 -0.32262,2.219697 v 1.748001 h -1.15343 -1.15343 v -2.534049 z m -22.256618,-4.325344 0.009,-0.777692 1.16217,-0.0092 1.16217,-0.0092 v 0.786902 0.7869 h -1.17158 -1.17157 z"
       id="path4550"
       inkscape:connector-curvature="0"
       sodipodi:nodetypes="ccccsccccccccssccccscsscccccccccccccccccccscccccccccccccsccscccscccccccccccccccccsccccccccccccccccccccccccccccccccccscccccccccccccccccccccccccccccccccccccccccccccccccccccccccccssccsccccccccccccccccccccccccsccccccccscccccccccccccc" />
    <g
       id="g4566"
       transform="matrix(0.07803826,0,0,0.07803826,5.5841616,39.888492)"
       style="fill:#923394;fill-opacity:1">
      <path
         id="path4552"
         d="m 61.39,25.703 c 0,0 8.94,-18.73 24.884,-18.73 15.944,0 24.438,18.73 24.438,18.73 l 61.39,155.607 H 136.49 L 119.652,140.065 H 52.153 L 35.613,181.31 H 0.001 L 61.391,25.703 Z m 2.384,86.245 h 43.66 L 89.998,61.33 c 0,0 -0.597,-4.455 -4.47,-4.455 -3.873,0 -4.322,4.455 -4.322,4.455 L 63.773,111.947 M 203.542,181.31 V 35.046 h -54.536 v -18.67 c 0,0 1.043,-3.174 4.172,-6.303 3.13,-3.114 9.09,-3.1 9.09,-3.1 h 116.969 c 0,0 5.96,0.209 9.238,2.534 3.278,2.339 4.769,6.869 4.769,6.869 v 18.67 h -55.58 V 181.31 h -34.122 m 56.621,0 v -26.792 c 0,0 36.655,-7.42 54.983,-34.24 6.407,-9.21 13.708,-19.268 16.54,-29.936 10.58,-40.053 6.705,-83.368 6.705,-83.368 h 14.006 v 61.182 c 0,0 -1.937,52.18 -26.076,79.136 -32.78,36.67 -66.158,34.018 -66.158,34.018 m 222.02,0 v -26.792 c 0,0 -36.655,-7.42 -54.983,-34.24 -6.258,-9.21 -13.56,-19.268 -16.391,-29.936 -10.58,-40.053 -6.706,-83.368 -6.706,-83.368 h -14.007 v 61.182 c 0,0 1.938,52.18 26.076,79.136 32.781,36.67 66.01,34.018 66.01,34.018 m -123.525,0 H 383.69 V 6.959 h -25.033 v 174.35 z m 147.069,0 V 28.609 c 0,0 2.235,-7.495 7.748,-13.038 5.514,-5.558 19.37,-8.598 19.37,-8.598 h 46.787 c 0,0 55.879,6.675 55.879,51.064 0,39.07 -43.361,49.202 -43.361,49.202 0,0 -3.725,2.13 -3.725,6.244 0,4.112 3.725,6.586 3.725,6.586 l 49.172,61.24 H 602.43 l -49.171,-61.24 c 0,0 -3.726,-5.961 -3.726,-11.115 0,-16.303 29.503,-24.438 29.503,-24.438 0,0 23.394,-7.167 23.394,-23.901 0,-20.324 -26.075,-26.33 -26.075,-26.33 h -29.802 c 0,0 -4.022,0.403 -6.258,2.713 -2.384,2.31 -2.384,8.687 -2.384,8.687 V 181.31 h -32.185 m 161.522,0 h 35.016 V 6.959 h -35.016 v 174.35 z"
         inkscape:connector-curvature="0"
         style="fill:#923394;fill-opacity:1" />
    </g>
  </g>
</svg>
